<svg xmlns="http://www.w3.org/2000/svg" xmlns:xlink="http://www.w3.org/1999/xlink" x="0px" y="0px"
	 width="578.557px" height="502.194px" viewBox="16.723 98.018 578.557 502.194"
	 enable-background="new 16.723 98.018 578.557 502.194" xml:space="preserve">
<title>Recurso 21</title>
	<g>
	<g>
		<path fill="#CFCFE1" d="M126.656,515.591c9.335,4.668,18.437,6.885,19.253,6.186c0.371-0.319,1.178-2.717,1.947-5.234
			c-1.579,0.378-3.175,0.574-4.765,0.574c-4.102,0-8.079-1.291-11.565-3.713c0.043-0.03,0.08-0.062,0.124-0.092
			c3.559-2.424,6.97-3.682,9.205-4.309l1.393-0.391v-17.479l-6.018-8.169l-0.639,0.145c-2.554,0.579-7.366,2.502-12.523,6.016
			c-5.018,3.419-8.548,7.356-10.372,11.463C115.285,505.025,120.324,512.426,126.656,515.591z"/>
		<linearGradient id="SVGID_1_" gradientUnits="userSpaceOnUse" x1="111.2639" y1="523.2368" x2="172.6848" y2="523.2368">
			<stop  offset="0" style="stop-color:#F3F5FE"/>
			<stop  offset="1" style="stop-color:#E1E6FD"/>
		</linearGradient>
		<path fill="url(#SVGID_1_)" d="M162.769,506.094l-0.489,0.755c-1.191,1.84-3.768,4.257-6.563,6.16
			c-2.491,1.697-5.151,2.887-7.86,3.533c-0.77,2.518-1.576,4.915-1.947,5.234c-0.816,0.699-9.918-1.518-19.253-6.186
			c-6.331-3.165-11.37-10.566-13.96-15.004c-0.891,2.002-1.381,4.045-1.428,6.088l0.078,16.305
			c-0.041,0.392-0.069,0.783-0.078,1.175c-0.016,0.662,0.018,1.32,0.094,1.974v0.016h0.001c0.558,4.752,3.509,9.244,8.635,13.094
			c5.791,4.35,12.733,6.648,20.076,6.648c7.66,0,15.464-2.559,22.569-7.4c5.012-3.414,8.396-6.964,9.528-8.967l0.514-0.91v-17.479
			L162.769,506.094z"/>
	</g>
		<path fill="#F9FAFE" d="M162.769,506.094l-0.489,0.755c-1.191,1.84-3.768,4.257-6.563,6.16c-3.943,2.688-8.309,4.107-12.625,4.107
		c-4.366,0-8.6-1.445-12.241-4.182c-3.563-2.674-5.334-5.502-5.268-8.401c0.07-3.036,2.168-6.045,6.067-8.701
		c3.559-2.425,6.97-3.681,9.205-4.308l1.393-0.392l-6.018-8.169l-0.639,0.145c-2.554,0.579-7.366,2.502-12.523,6.016
		c-7.466,5.087-11.656,11.32-11.8,17.551c-0.126,5.484,2.893,10.699,8.729,15.084c5.791,4.348,12.733,6.646,20.076,6.646
		c7.66,0,15.464-2.559,22.569-7.398c5.012-3.415,8.396-6.965,9.528-8.968l0.514-0.91L162.769,506.094z"/>
		<g id="Capa_2">
		<g id="Capa_1-2">
			<path fill="#CFCFE1" d="M381.924,490.302l-0.1-0.154c-2.885-3.102-7.258-7.826-7.49-8.123c-0.234-0.295-0.396-0.563-5.637,0.297
				l-0.297,0.049l-3.035,7.928l3.902,12.947l10.646,2.572l6.164-5.471L381.924,490.302z"/>
			<polygon fill="#C5C5D5" points="370.969,499.523 381.106,493.761 383.887,505.667 374.215,507.146 369.68,502.822 			"/>
			<polygon fill="#EDEDF6" points="397.198,543.539 410.934,535.421 397.957,505.519 384.219,513.636 			"/>
			<path fill="#EDEDF6" d="M390.744,510.806l7.604-4.383l3.428-1.975l0.377-0.26c2.221-1.479,3.357-4.174,3.357-8.129
				c0-10.131-6.051-18.691-18.154-25.68l-14.592-8.426l-13.736,8.117l14.59,8.426c12.105,6.986,18.156,15.547,18.156,25.68
				c0,3.389-0.846,5.84-2.477,7.412l0.018,0.041L390.744,510.806L390.744,510.806z"/>
			<path fill="#E9E9F3" d="M334.108,497.591l0.701,5.172l13.143-7.754l0,0l0.375-0.221v-0.023c2.07-1.314,3.105-3.869,3.105-7.711
				c0.025-3.014-0.609-5.998-1.861-8.74c-1.24-2.686-3.24-5.248-6-7.688l-14.41,4.996l-12.014,6.674l13.215,7.631L334.108,497.591z"
			/>
			<path fill="#EBEBF4" d="M334.405,503.599l-0.793-5.857l-3.646-7.449l-13.865-8.004l12.824-7.117l14.785-5.137l0.225,0.201
				c2.805,2.471,4.865,5.115,6.131,7.854c1.279,2.811,1.93,5.869,1.904,8.957c0,3.813-1.023,6.479-3.049,7.943v0.023l-0.686,0.432
				L334.405,503.599z M318.184,482.308l12.566,7.254l3.867,7.961l0.592,4.408l12.846-7.607c1.904-1.209,2.867-3.658,2.867-7.275
				c0.023-2.939-0.594-5.848-1.809-8.523c-1.184-2.537-3.074-4.998-5.654-7.32l-14.123,4.9L318.184,482.308z"/>
			<rect x="311.457" y="455.05" fill="#CFCFE1" width="14.152" height="15.295"/>
			<rect x="311.457" y="473.998" fill="#CFCFE1" width="17.004" height="17.002"/>
			<polygon fill="#C4C4D6" points="315.438,486.632 326.795,479.958 330.223,491.855 322.83,495.964 312.592,490.291 			"/>
			<path fill="#C5C5D6" d="M322.83,496.55l-11.006-6.104l3.359-4.258l11.928-7.008l3.723,12.924L322.83,496.55z M313.367,490.13
				l9.463,5.246l6.801-3.77l-3.131-10.871l-10.701,6.289L313.367,490.13z"/>
			<polygon fill="#C4C4D6" points="315.438,465.669 325.61,459.531 331.453,470.037 321.408,475.833 314.559,468.935 			"/>
			<path fill="#C5C5D6" d="M321.323,476.478l-7.334-7.393l1.008-3.75l10.803-6.52l6.35,11.41L321.323,476.478z M315.133,468.789
				l6.361,6.412l9.264-5.348l-5.332-9.596l-9.539,5.756L315.133,468.789z"/>
			<polygon fill="#E5E5EF" points="334.03,483.191 347.797,475.171 344.893,471.625 335.135,477.111 332.149,478.669
				329.844,478.738 			"/>
			<path fill="#ECECF5" d="M337.194,490.572l13.734-8.281l0.516,4.764l-0.516,4.596l-2.602,3.424l-12.754,7.275
				c0,0,1.883-2.996,1.883-3.295s0.516-5.178,0.516-5.178L337.194,490.572z"/>
			<path fill="#FFFFFF" d="M479.057,498.839c1.559-7.721,2.586-12.982,3.055-15.652c0.217-1.221,0.402-2.301,0.561-3.227
				c0.164,0.729,0.361,1.553,0.59,2.473c0.592,2.365,1.086,4.332,1.479,5.816l1.66,6.344L479.057,498.839z"/>
			<path fill="#EDEDF6" d="M525.117,482.185l-10.203,6.029l-5.322-15.002l-16.139-9.316l-14.26,8.418v52.016l11.17,6.449
				l0.516-0.297v-23.48c0-2.494-0.135-6.027-0.398-10.527l15.377,43.096l0.063,0.178l16.205,9.354l14.246-8.42v-52.014
				L525.117,482.185z M493.444,465.083l14.697,8.488l-12.715,7.516l-14.697-8.486L493.444,465.083z M521.592,547.625l-14.844-8.576
				l-16.264-45.621l-1.271-0.727l0.061,0.951c0.385,5.877,0.592,10.367,0.592,13.352v22.291l-9.633-5.561v-50.24l14.785,8.535
				l16.203,45.094l0.188,0.107l0.932-0.379v-0.059l-0.322-7.127c0-0.033,0-0.063,0-0.098l-0.102-27.779l9.693,5.596L521.592,547.625
				z M512.403,490.894l2.865-1.695l0,0l9.855-5.824l9.701,5.604l-12.715,7.516L512.403,490.894z"/>
			<path fill="#F9FAFE" d="M589.448,527.283c-3.887-6.465-9.406-11.76-16.559-15.889l-15.412-8.9l-13.736,8.117
				c0,0,10.02,8.623,10.275,8.801l3.461,2.439l12.031,8.803l4.824,21.43l0.711,11.811l0.361,9.463l13.736-8.117
				c4.092-2.281,6.139-7.713,6.139-16.293C595.281,540.972,593.338,533.751,589.448,527.283z"/>
			<path fill="#CFCFE1" d="M551.795,525.74l0.684,35.266l12.582,7.014l8.047-3.844l1.883-13.674c0,0-7.531-17.568-7.617-17.824
				c-0.086-0.258-13.779-9.33-13.779-9.33L551.795,525.74z"/>
			<polygon fill="#D7D8EB" points="555.776,557.587 573.143,546.789 574.99,556.638 562.645,565.966 554.448,560.488 			"/>
			<path fill="#E6E6F2" d="M581.547,557.06c0,8.586-2.047,14.018-6.139,16.293c-4.094,2.277-9.848,1.279-17.262-2.998l-14.406-8.318
				v-51.426l15.412,8.9c7.15,4.125,12.67,9.42,16.561,15.889C579.602,541.869,581.547,549.087,581.547,557.06z M569.057,550.341
				c0-4.713-0.809-8.674-2.422-11.881c-1.637-3.229-4.197-5.895-7.357-7.658l-3.502-2.023v28.809l2.68,1.549
				c3.658,2.107,6.34,2.43,8.043,0.967S569.055,555.386,569.057,550.341z"/>
			<polygon fill="#F9FAFE" points="510.858,490.716 525.051,482.14 536.289,488.646 522.106,497.089 			"/>
			<polygon fill="#F9FAFE" points="479.217,472.382 493.41,463.806 509.676,473.269 495.422,481.681 			"/>
			<polygon fill="#CFCFE1" points="490.158,493.673 489.864,493.673 489.887,530.503 490.36,530.779 500.805,525.017 			"/>
			<path fill="#DCDCE9" d="M522.094,548.97l-16.264-9.168l-15.77-46.023l-0.277-0.156c0.395,5.914,0.592,10.375,0.592,13.385
				l0.092,23.924l-11.238-6.504v-52.045l16.264,9.166l16.146,45.227l0.184,0.105c-0.285-5.346-0.426-9.59-0.426-12.732
				l-0.527-23.432l11.238,6.373L522.094,548.97z"/>
			<polygon fill="#CFCFE1" points="456.094,470.333 450.102,472.187 444.629,503.857 460.59,495.976 			"/>
			<polygon fill="#CFCFE1" points="461.147,512.818 450.143,506.302 460.53,502.158 			"/>
			<polygon fill="#DCDCE9" points="457.137,496.716 444.623,488.814 445.891,505.732 458.424,503.587 			"/>
			<polygon fill="#DCDCE9" points="443.721,478.003 431.313,529.453 417.414,521.173 430.721,465.582 444.717,473.884 			"/>
			<path fill="#EDEDF6" d="M459.996,464.99l-15.377,8.871l-13.307,55.592l13.012-6.801l2.07-10.053l12.418-7.395l2.367,7.689
				l12.715-7.393L459.996,464.99z M449.192,499.431c1.559-7.721,2.584-12.982,3.055-15.652c0.215-1.221,0.402-2.301,0.559-3.227
				c0.166,0.729,0.363,1.551,0.592,2.473c0.592,2.365,1.084,4.332,1.479,5.816l1.658,6.342L449.192,499.431z"/>
			<polygon fill="#F9FAFE" points="430.721,465.582 444.619,473.861 459.996,464.99 446.098,456.71 			"/>
			<polygon fill="#CFCFE1" points="370.989,528.566 381.338,523.539 376.016,510.824 370.397,508.164 369.807,519.4 			"/>
			<path fill="#DCDCE9" d="M371.061,509.732v18.713l-12.033-6.945v-51.428l14.59,8.426c12.105,6.986,18.156,15.547,18.156,25.68
				c0,5.955-2.518,9.109-7.555,9.461l12.979,29.902l-13.65-7.877l-9.443-24.166L371.061,509.732z M371.061,499.285l2.252,1.303
				c4.205,2.426,6.309,1.494,6.309-2.795c0-3.549-2.063-6.506-6.188-8.871l-2.365-1.373L371.061,499.285z"/>
			<path fill="#EDEFFA" d="M332.678,439.855l-15.531-8.984l-13.734,8.117l13.734,11.438l14.602,18.775l2.549,8.688l4.072-2.406
				l6.367-3.76l2.729-1.611c0.15-0.078,0.297-0.164,0.438-0.26l0.049-0.029l0,0c0.248-0.168,0.482-0.359,0.693-0.57
				c1.277-1.303,1.918-3.395,1.92-6.279c0-4.385-1.469-8.463-4.402-12.232C343.227,446.97,338.731,443.341,332.678,439.855z"/>
			<path fill="#EDEDF7" d="M333.985,478.666l-2.707-9.227l-14.541-18.699l-13.846-11.512v-0.533l14.246-8.418l15.797,9.119
				c6.08,3.51,10.666,7.221,13.627,11.027c2.959,3.805,4.512,8.064,4.512,12.547c0,3.01-0.693,5.242-2.068,6.639
				c-0.131,0.129-0.266,0.252-0.408,0.365l0,0l-0.395,0.297c-0.166,0.107-0.338,0.205-0.514,0.295L333.985,478.666z
				 M304.295,439.058l13.174,10.971l14.768,19.027l2.365,8.055l12.598-7.443c0.145-0.072,0.283-0.154,0.416-0.246l0,0l0.043-0.029
				c0.223-0.148,0.43-0.318,0.617-0.508c1.184-1.184,1.773-3.188,1.773-5.914c0-4.25-1.441-8.256-4.293-11.918
				c-2.85-3.66-7.363-7.32-13.33-10.766l-15.279-8.822L304.295,439.058z"/>
			<path fill="#DCDCE9" d="M303.406,438.988l15.535,8.969c6.051,3.496,10.543,7.127,13.479,10.896s4.402,7.848,4.402,12.234
				c0,2.883-0.639,4.977-1.918,6.277s-2.967,1.641-5.061,1.02v0.352c2.76,2.438,4.762,5,6.004,7.689
				c1.25,2.742,1.885,5.727,1.855,8.74c0,4.666-1.518,7.467-4.553,8.398c-3.035,0.934-7.176-0.113-12.42-3.141l-17.324-10.004
				V438.988z M315.438,465.669l3.625,2.094c1.727,0.996,3.063,1.355,4.004,1.08c0.943-0.277,1.414-1.225,1.416-2.842
				c0-2.883-1.889-5.416-5.666-7.598l-3.379-1.951V465.669z M315.438,475.835v10.797l4.234,2.445
				c3.756,2.168,5.635,1.424,5.637-2.232c-0.004-1.721-0.529-3.398-1.508-4.811c-1.141-1.617-2.637-2.951-4.375-3.898
				L315.438,475.835z"/>
			<path fill="#DFDFEB" d="M330.85,504.398c-2.824,0-6.295-1.182-10.367-3.549l-17.592-10.133v-52.016l0.512-0.295l15.793,9.119
				c6.084,3.51,10.666,7.221,13.629,11.023s4.514,8.068,4.514,12.551c0,3.008-0.699,5.242-2.07,6.639
				c-1.088,1.127-2.65,1.66-4.199,1.438c2.365,2.234,4.113,4.6,5.242,7.043c1.279,2.813,1.93,5.869,1.904,8.957
				c0,4.896-1.652,7.887-4.916,8.889C332.504,504.296,331.678,504.41,330.85,504.398z M303.92,490.125l17.074,9.859
				c5.086,2.936,9.125,3.975,12.006,3.092c2.82-0.865,4.193-3.453,4.193-7.906c0.023-2.939-0.594-5.85-1.811-8.525
				c-1.207-2.611-3.186-5.139-5.879-7.518l-0.172-0.152v-1.27l0.66,0.195c1.91,0.568,3.4,0.277,4.545-0.887
				c1.145-1.166,1.773-3.188,1.773-5.914c0-4.25-1.445-8.26-4.293-11.918c-2.848-3.656-7.365-7.324-13.33-10.766l-14.766-8.525
				L303.92,490.125z M323.09,490.81c-0.975,0-2.191-0.426-3.676-1.283l-4.492-2.594v-11.98l4.762,2.746
				c1.805,0.986,3.357,2.373,4.543,4.055c1.035,1.498,1.592,3.275,1.596,5.098c0,1.863-0.484,3.084-1.438,3.635
				c-0.395,0.219-0.842,0.33-1.295,0.318V490.81z M315.963,486.337l3.979,2.293c1.832,1.059,3.195,1.387,3.941,0.961
				c0.611-0.354,0.922-1.279,0.922-2.746c-0.004-1.617-0.498-3.195-1.418-4.525c-1.098-1.551-2.537-2.828-4.205-3.736l-3.219-1.861
				V486.337z M322.406,469.445c-0.967,0-2.152-0.406-3.59-1.238l-3.881-2.24v-10.4l4.139,2.395c3.93,2.268,5.914,4.975,5.914,8.041
				c0,1.869-0.592,2.992-1.773,3.334c-0.268,0.076-0.543,0.113-0.82,0.109H322.406z M315.963,465.375l3.369,1.941
				c1.59,0.92,2.807,1.27,3.602,1.033c0.26-0.074,1.049-0.297,1.049-2.348c0-2.662-1.82-5.08-5.408-7.154l-2.611-1.504V465.375z"/>
			<path fill="#E6E6F2" d="M311.635,288.63L311.635,288.63l0.221,2.54c0,0-3.086,9.619-2.793,11.396l0.295,1.774l3.734,16.991
				c0.113,0.503,0.611,0.821,1.115,0.708c0.088-0.019,0.17-0.051,0.248-0.094l5.932-3.288l0.861-0.505
				c1.141-0.689,1.875-2.209,1.875-4.403v-22.58L311.635,288.63z"/>
			<path fill="#DCDCE9" d="M310.094,322.223l-0.822-0.476c-3.045-1.757-5.512-6.473-5.512-10.533V288.63l11.846,6.839v22.583
				C315.606,322.113,313.141,323.979,310.094,322.223z"/>
			<polygon fill="#F9FAFE" points="303.76,288.63 311.268,284.331 323.117,291.17 315.606,295.47 			"/>
			<path fill="#FFFFFF" d="M310.207,311.967c-0.846-0.491-1.672-0.556-2.318-0.18c-0.648,0.375-1.002,1.118-1.002,2.097
				c0,1.83,1.238,3.98,2.822,4.894c0.422,0.262,0.906,0.408,1.402,0.423c0.322,0.002,0.641-0.082,0.92-0.242
				c0.646-0.373,1.002-1.118,1.002-2.1C313.033,315.031,311.791,312.881,310.207,311.967z M308.385,312.647
				c0.129-0.07,0.275-0.106,0.424-0.104c0.32,0.02,0.631,0.122,0.9,0.296c0.371,0.226,0.703,0.509,0.982,0.84l-2.244,2.262
				c-0.344-0.629-0.537-1.33-0.564-2.046C307.883,313.292,308.067,312.834,308.385,312.647z M311.528,318.094
				c-0.324,0.187-0.807,0.122-1.326-0.18c-0.473-0.292-0.885-0.671-1.213-1.118l2.295-2.313c0.451,0.71,0.709,1.525,0.748,2.366
				C312.037,317.458,311.854,317.911,311.528,318.094z"/>
			<path fill="#E5E5F1" d="M325.367,194.238l-35.801-20.67c-0.973-0.562-1.84-0.645-2.498-0.361l0,0l-7.455,4.457l10.053,15.229
				l2.207,9.341c0.813,3.439,3.199,6.833,5.896,8.392l7.65,4.418l8.326,11.707l7.518-4.521v-0.015
				c0.834-0.458,1.441-1.242,1.676-2.165l6.092-18.062C329.739,199.59,327.91,195.708,325.367,194.238z"/>
			<path fill="#E6E6F2" d="M313.569,227.517l-8.545-12.041l-7.545-4.353c-2.836-1.638-5.322-5.157-6.164-8.756l-2.186-9.244
				l-10.309-15.643l8.236-4.927l0.064,0.033c0.807-0.246,1.773-0.077,2.746,0.485l35.801,20.673c2.771,1.6,4.709,5.763,3.91,8.41
				l-6.094,18.077c-0.27,1.002-0.912,1.863-1.799,2.404l-0.131,0.085L313.569,227.517z M280.42,177.859l9.785,14.913l2.209,9.335
				c0.77,3.253,3.084,6.562,5.619,8.029l7.83,4.581l8.031,11.272l7.096-4.282c0.697-0.388,1.201-1.048,1.393-1.821l6.09-18.074
				c0.635-2.105-1.107-5.751-3.393-7.07l-35.801-20.67c-0.75-0.435-1.451-0.553-1.969-0.337L280.42,177.859z"/>
			<path fill="#CCCCD9" d="M309.295,226.354l-19.244-11.112c-2.697-1.556-5.082-4.953-5.896-8.393l-5.914-25.04
				c-0.773-3.28,1.059-5.11,3.631-3.625l35.795,20.67c2.545,1.479,4.371,5.352,3.65,7.75l-6.092,18.062
				C314.448,227.242,312.033,227.934,309.295,226.354z"/>
			<path fill="#E4E4F0" d="M312.067,227.768c-1.082-0.035-2.135-0.352-3.055-0.919l-19.248-11.11
				c-2.838-1.638-5.322-5.157-6.164-8.756l-5.914-25.041c-0.459-1.94-0.092-3.572,0.98-4.371c0.912-0.677,2.184-0.639,3.49,0.119
				l35.803,20.669c2.771,1.6,4.709,5.767,3.91,8.41l-6.094,18.08c-0.395,1.298-1.184,2.224-2.275,2.661
				C313.043,227.688,312.557,227.775,312.067,227.768z M309.582,225.858c1.307,0.751,2.543,0.958,3.49,0.591
				c0.756-0.296,1.313-0.97,1.602-1.94l6.098-18.08c0.648-2.146-1.061-5.725-3.391-7.07l-35.801-20.67
				c-0.906-0.52-1.697-0.591-2.236-0.189c-0.684,0.508-0.887,1.73-0.551,3.185l5.914,25.041c0.77,3.253,3.086,6.562,5.619,8.028
				L309.582,225.858z"/>
			<path fill="#E5E5F1" d="M300.475,273.824c-1.119-1.541-2.639-2.132-3.467-1.36c-0.617,0.578-1.342,1.031-2.131,1.334
				c-0.908,0.354-2.33-0.547-3.105-1.967l-0.619-1.121c-1.033-1.896-1.039-3.895,0-4.607l1.379-0.961
				c2.014-1.405,3.123-4.01,3.123-7.337v-7.608l-5.068-2.927l-3.68,2.407l1.455,9.64l-0.967,0.674
				c-2.031,1.417-2.563,4.684-1.621,8.345l-0.941,2.07l5.342,8.635l6.145,2.561l2.781-1.908c0.701-0.355,1.352-0.801,1.936-1.328
				C301.908,277.535,301.674,275.48,300.475,273.824z"/>
			<path fill="#E6E6F2" d="M296.383,282.243l-6.604-2.75l-5.619-9.052l0.992-2.159c-0.963-3.927-0.244-7.271,1.895-8.759
				l0.678-0.473l-1.461-9.652l4.281-2.8l5.662,3.268v7.928c0,3.519-1.182,6.293-3.367,7.807l-1.367,0.97
				c-0.668,0.464-0.783,2.07,0.193,3.862l0.617,1.132c0.668,1.228,1.838,1.919,2.393,1.709c0.723-0.278,1.385-0.693,1.951-1.221
				c0.398-0.37,0.939-0.545,1.479-0.479c0.965,0.091,2.02,0.81,2.828,1.922l0,0c1.393,1.919,1.6,4.246,0.473,5.293
				c-0.623,0.563-1.318,1.039-2.07,1.414L296.383,282.243z M290.563,278.576l5.688,2.366c0,0-0.297-6.952-1.156-6.612
				c-1.184,0.464-2.893-0.542-3.814-2.23l-0.619-1.132c-1.203-2.197-1.135-4.436,0.156-5.35l1.381-0.961
				c1.857-1.295,2.881-3.731,2.881-6.866v-7.263l-4.48-2.587l-3.074,2.014l1.455,9.628l-1.26,0.887
				c-1.775,1.236-2.307,4.199-1.393,7.733l0.049,0.195l-0.9,1.97L290.563,278.576z"/>
			<path fill="#D3D3E1" d="M291.207,276.208c-0.908,0.352-2.33-0.547-3.105-1.969l-0.617-1.133
				c-1.035-1.895-1.041-3.891-0.016-4.607l1.379-0.961c2.014-1.405,3.123-4.01,3.123-7.336v-7.597l-5.068-2.928v7.597
				c0,1.872-0.645,3.351-1.811,4.164l-1.381,0.964c-2.785,1.939-2.768,7.363,0.039,12.508l0.621,1.135
				c1.404,2.576,3.373,4.616,5.357,5.761c1.684,0.97,3.371,1.298,4.732,0.769c1.068-0.413,2.049-1.025,2.889-1.804
				c0.887-0.828,0.656-2.883-0.547-4.539l0,0c-1.115-1.541-2.639-2.132-3.463-1.36C292.721,275.448,291.996,275.901,291.207,276.208
				z"/>
			<path fill="#D3D3E1" d="M293.061,283.396c-1.279-0.045-2.527-0.422-3.619-1.094c-2.143-1.239-4.178-3.418-5.574-5.982
				l-0.621-1.136c-2.957-5.435-2.906-11.133,0.137-13.253l1.379-0.961c1.01-0.704,1.566-2.017,1.566-3.696v-8.575l6.211,3.587v7.928
				c0,3.522-1.184,6.292-3.369,7.807l-1.377,0.961c-0.67,0.464-0.787,2.07,0.188,3.862l0.619,1.132
				c0.668,1.227,1.84,1.931,2.393,1.709l0,0c0.721-0.278,1.383-0.691,1.947-1.218c0.404-0.375,0.951-0.551,1.498-0.482
				c0.961,0.092,2.016,0.811,2.826,1.922c1.391,1.922,1.598,4.246,0.471,5.296c-0.893,0.821-1.93,1.467-3.061,1.904
				C294.158,283.304,293.612,283.402,293.061,283.396z M287.477,250.67v6.603c0,2.07-0.734,3.711-2.07,4.634l-1.379,0.964
				c-2.521,1.757-2.428,6.926,0.213,11.764l0.621,1.135c1.301,2.383,3.176,4.403,5.143,5.539c1.588,0.917,3.09,1.183,4.24,0.73
				c1.002-0.386,1.92-0.959,2.705-1.688c0.592-0.556,0.463-2.292-0.617-3.782c-0.592-0.837-1.379-1.396-2.008-1.455
				c-0.215-0.035-0.432,0.031-0.592,0.177c-0.672,0.626-1.457,1.118-2.314,1.449l0,0c-1.184,0.464-2.896-0.538-3.818-2.227
				l-0.615-1.141c-1.199-2.2-1.133-4.436,0.16-5.353l1.377-0.961c1.857-1.292,2.881-3.732,2.881-6.866v-7.257L287.477,250.67z"/>
			<linearGradient id="SVGID_2_" gradientUnits="userSpaceOnUse" x1="306.7092" y1="251.8208" x2="290.7097" y2="229.8214">
				<stop  offset="0" style="stop-color:#E0E1ED"/>
				<stop  offset="0.914" style="stop-color:#D5D6E3"/>
			</linearGradient>
			<path fill="url(#SVGID_2_)" d="M289.268,213.308l-13.266,7.576l13.029,33.385l12.559-7.177c1.91-0.872,3.004-3.137,3.004-6.209
				v-18.728L289.268,213.308z"/>
			<path fill="#EBECF3" d="M288.739,255.094l-13.449-34.461l13.982-7.984l15.896,9.167v19.052c0,3.312-1.219,5.767-3.342,6.736
				L288.739,255.094z M276.715,221.135l12.609,32.306l11.982-6.849c1.74-0.795,2.713-2.872,2.713-5.716v-18.39l-14.752-8.52
				L276.715,221.135z"/>
			<path fill="#C4C6D4" d="M284.602,254.331l-1.023-0.591c-3.791-2.188-6.863-8.061-6.863-13.114v-18.393l14.752,8.52v18.39
				C291.467,254.198,288.395,256.517,284.602,254.331z"/>
			<path fill="#D1D1DF" d="M287.334,255.727c-1.066-0.027-2.105-0.333-3.016-0.887l-1.023-0.591
				c-3.945-2.277-7.154-8.383-7.154-13.603v-19.404l15.9,9.167v18.721c0,2.868-0.969,5.074-2.66,6.047
				C288.76,255.54,288.053,255.73,287.334,255.727z M277.28,223.226v17.399c0,4.864,2.957,10.524,6.576,12.621l1.023,0.591
				c1.479,0.849,2.857,0.976,3.922,0.364c1.324-0.766,2.084-2.608,2.084-5.057v-18.059L277.28,223.226z"/>
			<path fill="#E6E6F2" d="M226.717,346.184L226.717,346.184c-2.676-2.441-2.865-6.59-0.424-9.266c0-0.001,0-0.001,0.002-0.002
				l7.6-8.321c2.443-2.674,6.592-2.862,9.266-0.42l0,0L226.717,346.184z"/>
			<path fill="#DCDCE9" d="M226.039,347.003L226.039,347.003c-2.674-2.442-2.863-6.591-0.42-9.266v-0.001l3.883-4.199
				c2.438-2.677,6.584-2.872,9.262-0.435c0.002,0.001,0.002,0.002,0.004,0.003l0,0L226.039,347.003z"/>
			<linearGradient id="SVGID_3_" gradientUnits="userSpaceOnUse" x1="261.3557" y1="352.0781" x2="297.4008" y2="332.3618">
				<stop  offset="0" style="stop-color:#E5E5F2"/>
				<stop  offset="1" style="stop-color:#CBD0EE"/>
			</linearGradient>
			<path fill="url(#SVGID_3_)" d="M326.565,360.528l-54.488-64.225l-46.475,51.14l0.039,0.044
				c-3.182,3.271-4.506,8.614-3.252,15.439c2.66,14.723,16.264,30.752,30.355,35.779c7.363,2.635,13.398,1.742,17.107-1.803
				L326.565,360.528z"/>
			<linearGradient id="SVGID_4_" gradientUnits="userSpaceOnUse" x1="297.8533" y1="322.3638" x2="319.187" y2="352.197">
				<stop  offset="0" style="stop-color:#F3F5FE"/>
				<stop  offset="1" style="stop-color:#E1E6FD"/>
			</linearGradient>
			<path fill="url(#SVGID_4_)" d="M273.737,294.65c10.285-8.727,30.879-1.357,45.994,16.46s19.029,39.335,8.744,48.063
				c-10.287,8.727-30.881,1.357-45.996-16.46S263.449,303.377,273.737,294.65z"/>

			<ellipse transform="matrix(-0.6469 -0.7626 0.7626 -0.6469 246.6082 768.012)" fill="#D3D5EA" cx="301.105" cy="326.914" rx="33.9" ry="18.281"/>
			<path fill="#D3D7F2" d="M326.34,336.884c-0.887-4.208-2.688-8.549-5.096-12.736c-3.443,3.865-9.559,4.791-17.256,1.774
				c-6.656-2.603-13.275-7.665-18.727-13.842c-3.762-4.258-10.838-0.798-9.693,4.767c0.014,0.065,0.029,0.133,0.041,0.198
				c3.096,14.658,16.887,30.945,30.836,36.49C320.18,358.997,329.406,351.344,326.34,336.884z"/>
			<path fill="#2D50F4" d="M328.209,434.933c-0.23-0.123-0.459-0.238-0.684-0.348c-2.301-1.059-3.912-3.209-4.279-5.717
				c-2.027-15.213-3.338-63.805,2.172-77.614c4.139-10.35-11.213-25.372-23.328-34.414c-4.77-3.556-9.095-5.918-11.448-7.098
				c-1.359-0.734-2.73-1.378-4.103-1.915c-4.043-1.582-7.637-2.049-10.646-1.609c-0.926,2.904-1.047,6.523-0.148,10.767
				c0.873,4.117,2.591,8.363,4.916,12.464l-0.004,0.009c0.175,0.303,0.386,0.657,0.613,1.033c2.712,4.551,6.158,8.89,10.018,12.638
				c2.71,2.715,5.927,5.511,9.703,8.132c0.91,0.604,1.852,1.162,2.82,1.671c3.158,1.739,9.834,12.441,10.51,76.605
				c0.018,2.211-1.189,4.25-3.139,5.293l-0.191,0.104c-1.373,0.74-2.336,1.615-2.916,2.543c1.014,1.625,3.203,3.082,6.697,3.945
				c3.174,0.781,6.488,0.781,9.662,0c3.494-0.863,5.676-2.32,6.691-3.941C330.389,436.394,329.385,435.517,328.209,434.933z"/>
			<path opacity="0.1" fill="#3A60F6" d="M319.603,441.724c-1.604,0-3.206-0.195-4.764-0.578c-3.063-0.756-5.335-2.057-6.427-3.67
				c0.587-0.868,1.499-1.639,2.713-2.293l0.191-0.104c2.046-1.096,3.306-3.221,3.287-5.545
				c-0.654-62.123-6.957-74.815-10.656-76.852c-0.962-0.505-1.902-1.063-2.8-1.659c-3.409-2.366-6.661-5.091-9.66-8.096
				c-3.847-3.736-7.295-8.085-9.975-12.583c-0.201-0.333-0.389-0.647-0.55-0.924l-0.057-0.112
				c-2.395-4.224-4.038-8.391-4.885-12.383c-0.843-3.982-0.813-7.498,0.088-10.452c0.647-0.086,1.323-0.13,2.013-0.13
				c2.555,0,5.352,0.588,8.313,1.747c1.326,0.519,2.696,1.158,4.071,1.9c2.198,1.103,6.594,3.482,11.413,7.076
				c13.725,10.244,27.036,24.576,23.234,34.082c-5.436,13.624-4.343,61.598-2.189,77.756c0.383,2.615,2.043,4.834,4.442,5.938
				c0.216,0.105,0.441,0.219,0.668,0.34c1.08,0.537,2.011,1.329,2.708,2.302c-1.098,1.611-3.366,2.907-6.418,3.661
				C322.809,441.529,321.206,441.724,319.603,441.724z"/>
			<path opacity="0.1" fill="#3A60F6" d="M319.603,441.44c-1.58,0-3.16-0.191-4.696-0.569c-2.883-0.712-5.055-1.913-6.147-3.395
				c0.563-0.766,1.403-1.453,2.501-2.044l0.191-0.104c2.139-1.144,3.455-3.366,3.436-5.797c-0.655-62.267-7.05-75.031-10.803-77.097
				c-0.958-0.503-1.892-1.056-2.779-1.646c-3.393-2.354-6.63-5.066-9.617-8.06c-3.832-3.722-7.265-8.053-9.932-12.527
				c-0.201-0.333-0.388-0.646-0.548-0.922l-0.049-0.097c-2.387-4.211-4.02-8.35-4.86-12.314c-0.816-3.856-0.806-7.265,0.029-10.135
				c0.581-0.069,1.184-0.104,1.794-0.104c2.519,0,5.281,0.581,8.21,1.728c1.315,0.514,2.675,1.148,4.04,1.886
				c2.194,1.101,6.58,3.475,11.378,7.053c13.641,10.181,26.883,24.393,23.141,33.749c-5.451,13.665-4.363,61.719-2.207,77.9
				c0.397,2.713,2.118,5.013,4.605,6.156c0.207,0.102,0.429,0.214,0.652,0.333c0.98,0.487,1.836,1.194,2.491,2.055
				c-1.098,1.477-3.266,2.674-6.136,3.383C322.763,441.249,321.184,441.44,319.603,441.44z"/>
			<path opacity="0.1" fill="#3A60F6" d="M319.603,441.156c-1.558,0-3.115-0.188-4.629-0.561c-2.697-0.666-4.766-1.77-5.856-3.119
				c0.535-0.666,1.3-1.268,2.277-1.795l0.191-0.104c2.23-1.193,3.604-3.511,3.584-6.049c-0.656-62.411-7.142-75.246-10.949-77.343
				c-0.952-0.5-1.879-1.049-2.759-1.634c-3.375-2.342-6.598-5.042-9.574-8.024c-3.814-3.705-7.232-8.017-9.889-12.472
				c-0.201-0.333-0.387-0.644-0.546-0.919l-0.041-0.083c-2.376-4.194-4.001-8.31-4.836-12.245c-0.789-3.726-0.798-7.028-0.027-9.816
				c0.512-0.054,1.04-0.081,1.573-0.081c2.484,0,5.211,0.574,8.106,1.708c1.307,0.51,2.655,1.14,4.009,1.871
				c2.189,1.098,6.563,3.466,11.343,7.031c13.557,10.118,26.729,24.21,23.047,33.417c-5.467,13.705-4.384,61.841-2.225,78.043
				c0.412,2.811,2.194,5.192,4.769,6.375c0.197,0.098,0.416,0.208,0.637,0.326c0.878,0.437,1.655,1.057,2.265,1.806
				c-1.096,1.345-3.158,2.443-5.844,3.106C322.718,440.968,321.161,441.156,319.603,441.156z"/>
			<path opacity="0.1" fill="#3A60F6" d="M319.603,440.873c-1.536,0-3.071-0.186-4.562-0.553c-2.506-0.619-4.466-1.625-5.553-2.845
				c0.502-0.565,1.187-1.084,2.041-1.544l0.191-0.104c2.323-1.243,3.754-3.658,3.732-6.301
				c-0.657-62.555-7.234-75.463-11.096-77.589c-0.948-0.498-1.867-1.042-2.738-1.621c-3.358-2.33-6.566-5.019-9.531-7.988
				c-3.798-3.689-7.201-7.982-9.846-12.417c-0.201-0.333-0.386-0.643-0.544-0.916c-2.399-4.246-4.016-8.338-4.845-12.245
				c-0.762-3.596-0.789-6.789-0.082-9.494c0.442-0.041,0.896-0.061,1.351-0.061c2.449,0,5.142,0.568,8.003,1.688
				c1.294,0.505,2.632,1.129,3.978,1.856c2.185,1.096,6.546,3.457,11.308,7.008c13.473,10.055,26.577,24.026,22.954,33.084
				c-5.483,13.746-4.405,61.962-2.243,78.186c0.427,2.908,2.27,5.373,4.932,6.596c0.188,0.093,0.403,0.201,0.621,0.318
				c0.773,0.385,1.468,0.918,2.026,1.555c-1.091,1.215-3.046,2.217-5.54,2.832C322.673,440.687,321.14,440.873,319.603,440.873z"/>
			<path opacity="0.1" fill="#3A60F6" d="M319.603,440.589c-1.516,0-3.027-0.184-4.494-0.545c-2.309-0.57-4.152-1.478-5.231-2.57
				c0.461-0.468,1.061-0.902,1.787-1.293l0.191-0.104c2.416-1.293,3.903-3.805,3.881-6.553c-0.658-62.7-7.326-75.679-11.242-77.836
				c-0.937-0.492-1.85-1.032-2.718-1.609c-3.342-2.318-6.535-4.995-9.488-7.952c-3.781-3.674-7.17-7.947-9.803-12.362
				c-0.201-0.333-0.385-0.641-0.542-0.913c-2.371-4.196-3.99-8.288-4.813-12.162c-0.734-3.465-0.779-6.549-0.135-9.169
				c0.371-0.029,0.748-0.042,1.126-0.042c2.414,0,5.072,0.562,7.899,1.669c1.283,0.5,2.61,1.12,3.946,1.842
				c2.178,1.093,6.528,3.447,11.272,6.986c13.389,9.992,26.424,23.843,22.86,32.751c-5.499,13.787-4.426,62.083-2.261,78.329
				c0.441,3.006,2.346,5.553,5.095,6.816c0.178,0.088,0.391,0.195,0.605,0.311c0.664,0.33,1.271,0.775,1.773,1.302
				c-1.082,1.089-2.922,1.992-5.222,2.56C322.629,440.406,321.118,440.589,319.603,440.589z"/>
			<path opacity="0.1" fill="#3A60F6" d="M319.603,440.305c-1.493,0-2.982-0.181-4.427-0.536c-2.104-0.52-3.824-1.328-4.89-2.295
				c0.41-0.373,0.917-0.724,1.513-1.044l0.191-0.104c2.509-1.343,4.053-3.95,4.029-6.805c-0.659-62.843-7.418-75.895-11.389-78.082
				c-0.936-0.491-1.842-1.027-2.697-1.596c-3.323-2.305-6.502-4.969-9.445-7.917c-3.766-3.659-7.14-7.914-9.76-12.307
				c-0.201-0.333-0.384-0.64-0.54-0.91c-2.355-4.167-3.964-8.232-4.78-12.079c-0.706-3.333-0.769-6.307-0.185-8.842
				c0.297-0.018,0.598-0.027,0.898-0.027c2.379,0,5.002,0.555,7.796,1.649c1.271,0.496,2.588,1.11,3.915,1.827
				c2.175,1.091,6.517,3.442,11.237,6.963c13.304,9.929,26.271,23.659,22.768,32.419c-5.516,13.828-4.447,62.205-2.279,78.472
				c0.456,3.104,2.421,5.732,5.258,7.036c0.168,0.083,0.378,0.189,0.59,0.303c0.55,0.273,1.063,0.631,1.501,1.047
				c-1.066,0.965-2.786,1.771-4.884,2.289C322.583,440.125,321.096,440.305,319.603,440.305z"/>
			<path opacity="0.1" fill="#3A60F6" d="M319.603,440.021c-1.471,0-2.938-0.177-4.359-0.527c-1.89-0.467-3.479-1.178-4.521-2.02
				c0.347-0.281,0.753-0.547,1.211-0.795l0.192-0.104c2.601-1.392,4.202-4.096,4.178-7.057c-0.66-62.987-7.511-76.11-11.535-78.327
				c-0.933-0.489-1.831-1.021-2.677-1.583c-3.305-2.292-6.469-4.944-9.402-7.881c-3.75-3.645-7.109-7.88-9.717-12.251
				c-0.201-0.333-0.383-0.638-0.538-0.907c-2.339-4.14-3.938-8.176-4.748-11.996c-0.679-3.201-0.756-6.063-0.231-8.512
				c0.222-0.01,0.444-0.015,0.668-0.015c2.344,0,4.933,0.548,7.692,1.63c1.258,0.49,2.564,1.1,3.884,1.813
				c2.17,1.089,6.5,3.433,11.202,6.941c13.22,9.866,26.118,23.476,22.674,32.086c-5.531,13.869-4.468,62.327-2.297,78.616
				c0.471,3.201,2.497,5.912,5.421,7.256c0.158,0.078,0.365,0.183,0.574,0.295c0.432,0.215,0.842,0.484,1.204,0.792
				c-1.042,0.842-2.632,1.554-4.521,2.019C322.538,439.844,321.073,440.021,319.603,440.021z"/>
			<path opacity="0.1" fill="#3A60F6" d="M319.603,439.738c-1.449,0-2.894-0.175-4.292-0.52c-1.669-0.412-3.114-1.025-4.121-1.745
				c0.264-0.188,0.558-0.371,0.878-0.544l0.192-0.104c2.693-1.441,4.352-4.242,4.326-7.309
				c-0.661-63.131-7.603-76.327-11.682-78.573c-0.923-0.484-1.814-1.012-2.656-1.572c-3.284-2.277-6.435-4.917-9.359-7.845
				c-3.735-3.631-7.079-7.848-9.674-12.196c-0.201-0.333-0.381-0.636-0.536-0.903c-2.324-4.115-3.912-8.124-4.716-11.913
				c-0.65-3.066-0.743-5.816-0.276-8.178c0.145-0.004,0.29-0.006,0.436-0.006c2.31,0,4.862,0.542,7.589,1.61
				c1.247,0.486,2.543,1.091,3.853,1.798c2.165,1.086,6.483,3.424,11.167,6.918c13.136,9.803,25.965,23.293,22.581,31.754
				c-5.548,13.91-4.489,62.448-2.315,78.758c0.485,3.299,2.572,6.092,5.584,7.477c0.148,0.073,0.353,0.176,0.559,0.287
				c0.312,0.154,0.604,0.334,0.876,0.537c-1.006,0.721-2.454,1.336-4.126,1.748C322.494,439.563,321.052,439.738,319.603,439.738z"
			/>
			<path opacity="0.1" fill="#3A60F6" d="M319.603,439.455c-1.427,0-2.848-0.172-4.225-0.512c-1.438-0.354-2.727-0.871-3.68-1.471
				c0.159-0.1,0.327-0.198,0.504-0.293l0.192-0.104c2.786-1.492,4.501-4.389,4.475-7.561c-0.662-63.276-7.695-76.543-11.828-78.82
				c-0.916-0.481-1.802-1.004-2.636-1.559c-3.267-2.265-6.402-4.893-9.316-7.809c-3.719-3.616-7.048-7.813-9.631-12.141
				c-0.201-0.333-0.38-0.634-0.534-0.9c-2.311-4.09-3.887-8.072-4.684-11.83c-0.622-2.931-0.729-5.567-0.318-7.841
				c0.067-0.001,0.134-0.001,0.2-0.001c2.274,0,4.793,0.535,7.485,1.59c1.235,0.481,2.521,1.082,3.821,1.784
				c2.16,1.084,6.468,3.416,11.132,6.896c13.051,9.74,25.813,23.109,22.487,31.421c-5.563,13.95-4.51,62.57-2.333,78.901
				c0.5,3.396,2.648,6.273,5.747,7.697c0.139,0.068,0.34,0.17,0.543,0.279c0.177,0.088,0.345,0.183,0.506,0.284
				c-0.953,0.602-2.245,1.12-3.689,1.476C322.448,439.283,321.03,439.455,319.603,439.455z"/>
			<path opacity="0.1" fill="#3A60F6" d="M319.603,439.17c-1.404,0-2.803-0.169-4.157-0.503c-1.199-0.295-2.313-0.714-3.188-1.195
				c0.026-0.015,0.272-0.147,0.272-0.147c2.879-1.542,4.65-4.535,4.623-7.813c-0.663-63.42-7.787-76.759-11.975-79.065
				c-0.915-0.48-1.794-1-2.615-1.546c-3.249-2.252-6.37-4.869-9.273-7.773c-3.702-3.601-7.017-7.779-9.588-12.086
				c-0.201-0.332-0.379-0.632-0.532-0.897c-2.295-4.063-3.86-8.016-4.651-11.746c-0.593-2.793-0.713-5.314-0.356-7.5
				c2.229,0.006,4.699,0.534,7.343,1.571c1.224,0.477,2.498,1.072,3.79,1.769c2.155,1.082,6.451,3.407,11.097,6.874
				c12.967,9.677,25.659,22.926,22.395,31.089c-5.58,13.991-4.531,62.691-2.352,79.044c0.515,3.494,2.724,6.452,5.91,7.916
				c0.129,0.064,0.327,0.165,0.527,0.272c0.025,0.012,0.051,0.025,0.075,0.037c-0.876,0.482-1.99,0.9-3.192,1.197
				C322.404,439.001,321.007,439.17,319.603,439.17z"/>
			<path opacity="0.1" fill="#3A60F6" d="M319.603,438.886c-1.382,0-2.758-0.166-4.09-0.494c-0.973-0.24-1.878-0.557-2.65-0.928
				c2.854-1.62,4.602-4.647,4.573-7.955c-0.664-63.563-7.879-76.974-12.121-79.311c-0.912-0.479-1.783-0.995-2.595-1.534
				c-3.23-2.239-6.337-4.844-9.23-7.738c-3.687-3.586-6.986-7.746-9.545-12.032c-0.201-0.332-0.378-0.63-0.53-0.894
				c-2.279-4.035-3.834-7.96-4.619-11.663c-0.563-2.656-0.695-5.062-0.391-7.155c2.13,0.042,4.482,0.563,6.996,1.548
				c1.211,0.472,2.476,1.062,3.759,1.755c2.149,1.079,6.434,3.397,11.062,6.851c12.883,9.614,25.506,22.743,22.301,30.756
				c-5.596,14.032-4.552,62.813-2.369,79.188c0.529,3.592,2.8,6.631,6.073,8.136c0.029,0.015,0.063,0.032,0.102,0.052
				c-0.77,0.367-1.672,0.684-2.641,0.922C322.359,438.72,320.985,438.886,319.603,438.886z"/>
			<g>
				<path fill="#FFFFFF" d="M82.926,543.505c2.889,1.666,5.525,2.563,7.906,2.691c2.357,0.137,4.701-0.43,6.736-1.627
					c2.254-1.301,3.24-2.619,2.957-3.953c-0.281-1.336-1.893-2.852-4.834-4.551l-23.918-13.811v14.813L82.926,543.505z"/>
				<linearGradient id="SVGID_5_" gradientUnits="userSpaceOnUse" x1="47.594" y1="553.7729" x2="115.5354" y2="553.7729">
					<stop  offset="0" style="stop-color:#F3F5FE"/>
					<stop  offset="1" style="stop-color:#E1E6FD"/>
				</linearGradient>
				<path fill="url(#SVGID_5_)" d="M105.485,545.841l-24.945,3.549l-32.945-13.484v16.879l24.84,14.344
					c5.346,3.088,10.939,4.59,16.779,4.508c5.838-0.084,11.543-1.73,17.115-4.945c5.701-3.291,9.115-7.296,9.207-10.735v-16.879
					L105.485,545.841z"/>
				<path fill="#F8F9FD" d="M107.467,529.675l-24.389-14.088l-0.254-0.145l-11.207,6.471v14.412l-12.215-7.053l-0.254-0.145
					l-11.021,6.34c-0.318,0.182-0.512,0.521-0.51,0.887l0,0l24.904,14.381c5.227,3.016,10.762,4.545,16.463,4.545h0.447
					c5.857-0.084,11.652-1.758,17.23-4.975c5.793-3.348,8.779-6.859,8.871-10.449S112.918,532.824,107.467,529.675z"/>
				<path fill="#DCDCE9" d="M71.571,521.835l24.162,14.973c0.361,0.207,0.68,0.404,0.988,0.59c2.469,1.604,3.199,2.744,3.348,3.449
					c0.225,1.084-0.689,2.232-2.719,3.402c-1.953,1.137-4.193,1.68-6.449,1.563c-2.291-0.125-4.873-1.008-7.688-2.627l-11.643-6.859
					V521.835z"/>
				<path fill="#F9FAFE" d="M106.08,549.367c-5.465,3.158-11.141,4.799-16.855,4.875c-5.717,0.078-11.273-1.412-16.514-4.436
					l-24.072-13.898l10.053-5.813l12.559,7.256l0,0l11.406,6.586c2.957,1.699,5.684,2.629,8.139,2.762
					c0.236,0,0.469,0.018,0.703,0.018c2.221,0,4.4-0.592,6.316-1.715c2.453-1.42,3.533-2.934,3.205-4.504
					c-0.281-1.342-1.652-2.764-4.164-4.334c-0.365-0.234-0.754-0.475-1.182-0.717l-23.148-13.363l10.01-5.781l24.334,14.053
					c5.145,2.957,7.711,6.109,7.625,9.332C114.408,542.912,111.588,546.187,106.08,549.367z"/>
			</g>
			<path fill="#E6E6F2" d="M478.973,571.062l-2.367,0.719c-0.891-0.879-1.893-1.639-2.98-2.26l0,0
				c-6.463-3.775-16.242-4.188-21.844-0.916l-22.834,13.262l-6.91,2.1v5.488h0.018c0.094,2.445,1.887,5.004,5.322,7.016
				c6.465,3.775,16.244,4.186,21.844,0.912l25.969-15.08c2.49-1.455,3.729-3.395,3.773-5.43l0,0L478.973,571.062z"/>
			<path fill="#F9FAFE" d="M475.196,576.804l-25.969,15.082c-5.6,3.27-15.377,2.859-21.844-0.918l0,0
				c-6.465-3.775-7.168-9.488-1.57-12.762l25.973-15.08c5.6-3.271,15.377-2.863,21.844,0.912l0,0
				C480.08,567.822,480.797,573.535,475.196,576.804z"/>
			<path fill="#F9FAFE" d="M439.744,594.867c-4.436,0-9.115-1.088-12.754-3.215c-3.641-2.125-5.732-5-5.732-7.887
				c0-2.439,1.479-4.645,4.164-6.209l25.975-15.082c5.803-3.391,15.951-2.98,22.625,0.918c3.641,2.129,5.73,5.002,5.73,7.889
				c0,2.438-1.479,4.643-4.162,6.211l0,0l-25.973,15.08C446.979,594.113,443.444,594.867,439.744,594.867z M461.272,561.689
				c-3.416,0-6.668,0.691-9.094,2.107l-25.975,15.082c-2.188,1.279-3.393,3.01-3.393,4.873c0,2.318,1.811,4.705,4.963,6.547
				c6.242,3.646,15.688,4.057,21.061,0.916l25.975-15.096c2.188-1.279,3.391-3.008,3.391-4.869c0-2.322-1.809-4.709-4.965-6.551
				c-3.42-1.984-7.813-3.014-11.963-3.014V561.689z"/>
			<g>
				<path fill="#E4E5F0" d="M461.418,578.673c-3.252,0-6.504-0.713-8.965-2.141c-2.541-1.479-3.939-3.465-3.939-5.619
					c0-2.152,1.398-4.139,3.939-5.617c4.943-2.854,12.99-2.854,17.934,0l0,0c2.541,1.479,3.943,3.469,3.943,5.617
					c0,2.15-1.402,4.141-3.943,5.619C467.916,577.949,464.668,578.673,461.418,578.673z M461.418,564.671
					c-2.957,0-5.934,0.65-8.189,1.955c-2.041,1.184-3.164,2.699-3.164,4.279c0,1.578,1.123,3.105,3.164,4.285
					c4.514,2.605,11.863,2.605,16.379,0c2.043-1.184,3.166-2.697,3.166-4.279s-1.123-3.105-3.166-4.281l0,0
					c-2.242-1.309-5.221-1.959-8.186-1.959H461.418z"/>
			</g>
			<path fill="#DEDEEB" d="M245.309,560.82L245.309,560.82l0.15-8.605h70.941l-0.094,8.387c0.023,0.213,0,0-0.027,0.215l0,0
				c-0.162,1.242-1.141,2.52-2.896,3.549l-26.473,15.297c-3.547,2.043-8.871,2.266-11.938,0.496l-27.625-15.967
				C245.811,563.294,245.145,562.074,245.309,560.82z"/>
			<path fill="#F9FAFD" d="M247.455,555.794l27.621,15.969c3.061,1.773,8.408,1.547,11.941-0.496l26.469-15.295
				c3.533-2.043,3.918-5.133,0.857-6.902l-27.623-15.967c-3.061-1.775-8.406-1.547-11.939,0.496l-26.469,15.295
				C244.78,550.937,244.403,554.027,247.455,555.794z"/>
			<g>
				<path fill="#E5E6F0" d="M278.963,561.982c-0.279,0-0.557,0-0.838,0c-5.842-0.172-11.154-2.166-13.854-5.205
					c-1.375-1.547-2.02-3.301-1.865-5.068c0.473-5.365,8.279-9.525,17.387-9.244c3.969,0.119,7.736,1.068,10.604,2.662l0.719,0.402
					l-11.111,6.617l12.76,5.535l-0.643,0.492C288.981,560.591,284.112,561.982,278.963,561.982z M278.942,543.392
					c-8.26,0-15.17,3.674-15.586,8.387c-0.133,1.502,0.432,3.008,1.629,4.354c2.531,2.85,7.578,4.73,13.17,4.889
					c4.879,0.139,9.561-1.016,12.717-3.123l-12.953-5.619l11.273-6.713c-2.633-1.295-5.945-2.07-9.428-2.16
					c-0.275,0-0.551-0.004-0.822-0.004V543.392z"/>
			</g>
			<g>
				<path fill="#E5E6F0" d="M299.457,557.962l-13.98-6.064l12.24-7.289l0.238,0.135c3.504,1.965,5.367,4.732,5.115,7.6
					c-0.176,2-1.348,3.883-3.391,5.447L299.457,557.962z M287.561,551.753l11.758,5.1c1.691-1.363,2.662-2.957,2.803-4.604
					c0.213-2.416-1.383-4.791-4.393-6.551L287.561,551.753z"/>
			</g>
			<polygon fill="#EDEDF6" points="194.453,591.847 180.258,600.126 180.258,585.341 194.453,577.357 			"/>
			<polygon fill="#DCDCE9" points="166.065,591.933 180.258,600.212 180.258,585.341 166.065,577.357 			"/>
			<polygon fill="#F9FAFE" points="166.065,577.357 180.258,585.341 194.453,577.357 179.668,569.964 			"/>
			<polygon fill="#DCDCE9" points="371.285,422.044 371.285,415.238 402.926,433.052 403.008,440.466 			"/>
			<polygon fill="#E6E6F2" points="434.649,422.044 434.649,415.238 403.012,433.052 402.926,440.466 			"/>
			<polygon fill="#F9FAFE" points="434.731,415.238 403.008,433.552 371.285,415.238 403.008,396.923 			"/>
			<path fill="#D8D8E6" d="M63.584,483.228l-1.918,0.701c-0.615-0.625-1.303-1.174-2.049-1.633
				c-0.193-0.117-0.396-0.221-0.592-0.334c0.146-0.396,0.217-0.816,0.209-1.238c-0.109-0.654-4.51-3.479-5.869-4.184
				c-1.361-0.707-7.932-0.98-7.932-0.98l-7.223,5.164l1.09,0.648c-0.414,0.18-0.816,0.371-1.203,0.59
				c-0.67,0.357-1.309,0.77-1.908,1.236l-3.045,0.021v5.426l0,0c0.074,2.049,1.373,4.084,3.959,5.689
				c5.664,3.514,15.318,3.666,21.525,0.344c3.211-1.723,4.863-4.041,4.941-6.367l0,0L63.584,483.228z M45.156,489.951l-3.904-3.943
				c0.463-0.449,0.988-0.828,1.559-1.125c3.354-1.795,8.576-1.713,11.635,0.186c0.82,0.465,1.48,1.168,1.898,2.014L45.156,489.951z"
			/>
			<path fill="#DFDFE9" d="M48.098,497.728c-4.166,0-8.297-0.949-11.324-2.828c-2.566-1.594-4.066-3.699-4.246-5.955l0,0v-0.275
				v-6.08l3.465-0.023c0.578-0.432,1.188-0.82,1.824-1.162l0.15-0.08l-0.904-0.537l8.199-5.859h0.221
				c0.688,0.031,6.756,0.297,8.199,1.051c0.063,0.033,5.996,3.404,6.209,4.645c0.041,0.346,0.01,0.695-0.092,1.027l0.188,0.109
				c0.67,0.414,1.297,0.896,1.871,1.438l2.398-0.889l-0.029,6.377c-0.229,2.549-2.07,4.869-5.258,6.572
				C55.864,496.925,51.967,497.724,48.098,497.728z M33.778,488.589v0.053c0.068,1.914,1.367,3.75,3.658,5.17
				c5.488,3.406,14.855,3.549,20.885,0.326c2.896-1.553,4.531-3.621,4.605-5.826v-0.322v-3.844l-1.449,0.529l-0.297-0.297
				c-0.578-0.586-1.225-1.102-1.928-1.533c-0.121-0.078-0.248-0.146-0.375-0.213l-0.645-0.359l0.148-0.494
				c0.121-0.301,0.186-0.623,0.189-0.949c-0.316-0.473-4.043-2.957-5.531-3.719c-0.871-0.455-4.936-0.783-7.445-0.887l-6.221,4.438
				l1.318,0.783l-1.143,0.5c-0.395,0.172-0.783,0.361-1.156,0.559c-0.637,0.344-1.244,0.74-1.818,1.184l-0.168,0.133l-2.629,0.018
				V488.589z M44.961,490.66l-4.596-4.654l0.453-0.453c0.506-0.49,1.08-0.906,1.707-1.232c3.529-1.893,9.035-1.801,12.271,0.203
				c0.932,0.533,1.68,1.334,2.146,2.301l0.295,0.689L44.961,490.66z M42.184,486.041l3.17,3.197l9.996-2.561
				c-0.352-0.424-0.771-0.783-1.242-1.064c-2.889-1.795-7.822-1.867-10.994-0.166C42.787,485.619,42.477,485.818,42.184,486.041z"/>
			<path fill="#F9FAFE" d="M58.635,489.601c-6.211,3.326-15.861,3.17-21.525-0.344c-5.662-3.512-5.225-9.078,0.982-12.4
				c6.207-3.324,15.859-3.17,21.525,0.342C65.281,480.712,64.838,486.281,58.635,489.601z M42.811,479.775
				c-3.354,1.797-3.59,4.805-0.529,6.703s8.281,1.982,11.635,0.188c3.352-1.795,3.59-4.807,0.529-6.705
				S46.164,478.001,42.811,479.775z"/>
			<path fill="#ECEDF4" d="M48.098,492.628c-4.166,0-8.297-0.949-11.324-2.826c-2.836-1.773-4.355-4.102-4.277-6.594
				c0.086-2.662,1.967-5.135,5.295-6.918c6.383-3.42,16.322-3.252,22.178,0.365c2.836,1.773,4.352,4.102,4.275,6.594
				c-0.086,2.662-1.967,5.133-5.293,6.916C55.864,491.814,51.967,492.628,48.098,492.628z M48.637,475.087
				c-3.652,0-7.336,0.775-10.244,2.334c-2.906,1.559-4.533,3.658-4.617,5.828c-0.066,2.016,1.24,3.957,3.672,5.465
				c5.488,3.406,14.855,3.549,20.885,0.324c2.867-1.537,4.549-3.66,4.617-5.828c0.064-2.02-1.24-3.959-3.67-5.467
				c-2.842-1.766-6.725-2.656-10.633-2.656H48.637z M48.223,488.599c-2.309,0-4.602-0.527-6.277-1.568
				c-1.627-1.01-2.496-2.365-2.449-3.822c0.047-1.557,1.117-2.957,3.014-3.986c3.531-1.893,9.037-1.801,12.271,0.203
				c1.623,1.01,2.496,2.365,2.449,3.824c-0.051,1.555-1.121,2.957-3.018,3.986C52.516,488.146,50.362,488.599,48.223,488.599z
				 M48.518,479.119c-1.871-0.029-3.725,0.393-5.398,1.23c-1.455,0.777-2.307,1.836-2.342,2.9c-0.029,0.979,0.627,1.938,1.848,2.693
				c2.887,1.793,7.818,1.869,10.992,0.166c1.453-0.777,2.307-1.836,2.342-2.9c0.029-0.979-0.625-1.938-1.846-2.695
				c-1.5-0.928-3.539-1.395-5.602-1.395H48.518z"/>
			<path fill="#E6E6F2" d="M269.057,312.745L269.057,312.745l0.221,2.543c0,0-3.084,9.62-2.793,11.396l0.295,1.774l3.734,16.988
				c0.109,0.502,0.605,0.821,1.109,0.711c0.088-0.02,0.174-0.052,0.254-0.096l5.941-3.286l0.863-0.505
				c1.139-0.686,1.871-2.209,1.871-4.4v-22.583L269.057,312.745z"/>
			<path fill="#D1D1DF" d="M267.518,346.337l-0.824-0.473c-3.043-1.759-5.512-6.476-5.512-10.536v-22.583l11.85,6.843v22.583
				C273.031,346.231,270.561,348.097,267.518,346.337z"/>
			<polygon fill="#F9FAFE" points="261.182,312.745 268.692,308.449 280.541,315.288 273.031,319.588 			"/>
			<path fill="#C3C3D5" d="M267.631,336.082c-0.85-0.491-1.674-0.556-2.318-0.18s-1.006,1.121-1.006,2.1
				c0,1.828,1.242,3.977,2.828,4.894c0.422,0.259,0.904,0.404,1.4,0.42c0.322,0.002,0.641-0.081,0.92-0.24
				c0.645-0.375,1.002-1.121,1.002-2.1C270.457,339.146,269.215,336.996,267.631,336.082z M265.809,336.765
				c0.129-0.072,0.275-0.107,0.424-0.103c0.316,0.021,0.621,0.123,0.887,0.295c0.369,0.225,0.701,0.508,0.982,0.837l-2.244,2.265
				c-0.346-0.629-0.541-1.33-0.568-2.046C265.303,337.401,265.49,336.949,265.809,336.765z M268.948,342.212
				c-0.326,0.186-0.805,0.118-1.326-0.181c-0.473-0.292-0.885-0.671-1.215-1.118l2.299-2.315c0.449,0.71,0.709,1.525,0.748,2.366
				C269.461,341.577,269.278,342.026,268.948,342.212z"/>
			<path fill="#E6E6F2" d="M270.457,314.916L270.457,314.916c-1.264,0-2.289-1.024-2.291-2.289v-17.769
				c0-5.769,3.912-12.544,8.906-15.427l27.568-16.228c2.787-1.609,5.619-1.81,7.795-0.556c2.178,1.254,3.418,3.809,3.418,7.008
				v17.769c0,1.266-1.025,2.292-2.291,2.292l0,0l0,0c-1.266,0-2.291-1.026-2.291-2.292l0,0v-17.769c0-1.496-0.42-2.632-1.127-3.04
				c-0.707-0.408-1.898-0.204-3.197,0.544l-27.568,16.228c-3.602,2.07-6.629,7.328-6.629,11.471v17.769
				C272.748,313.892,271.723,314.916,270.457,314.916z"/>
			<path fill="#E6E6F2" d="M291.602,182.696c-4.732-2.723-8.99-3.052-12.166-1.416h-0.021c-0.539,0.319-1.061,0.667-1.561,1.043
				l-3.527,2.366l1.043,0.908c-0.955,1.964-1.492,4.436-1.492,7.346c0,11.302,7.936,25.049,17.725,30.7
				c9.787,5.651,17.723,1.07,17.723-10.234C309.324,202.104,301.391,188.348,291.602,182.696z"/>
			<path fill="#CCCCD9" d="M299.52,226.632c-2.527,0-5.322-0.839-8.205-2.504c-9.934-5.737-18.012-19.729-18.012-31.197
				c0-2.744,0.459-5.16,1.363-7.197l-1.283-1.115l4.139-2.777c0.508-0.384,1.037-0.739,1.586-1.062l0.26-0.16l0.051,0.024
				c3.457-1.642,7.865-1.097,12.457,1.555c9.934,5.734,18.012,19.729,18.012,31.197c0,5.681-1.945,9.933-5.477,11.974
				C302.92,226.215,301.233,226.651,299.52,226.632z M275.272,184.737l0.811,0.704l-0.191,0.396
				c-0.953,1.958-1.438,4.344-1.438,7.097c0,11.101,7.824,24.653,17.445,30.204c4.549,2.626,8.783,3.066,11.941,1.239
				c3.158-1.828,4.906-5.725,4.906-10.98c0-11.104-7.824-24.653-17.447-30.203c-4.355-2.517-8.484-3.016-11.615-1.405l-0.23,0.119
				c-0.432,0.259-0.848,0.542-1.248,0.849L275.272,184.737z"/>

			<ellipse transform="matrix(-0.5 -0.866 0.866 -0.5 251.8181 558.0046)" fill="#DCDCE9" cx="286.992" cy="206.308" rx="25.067" ry="14.472"/>
			<path fill="#CCCCD9" d="M294.91,229.773c-2.529,0-5.322-0.84-8.207-2.504c-9.932-5.734-18.012-19.73-18.012-31.197
				c0-5.681,1.947-9.93,5.48-11.97s8.186-1.6,13.105,1.242c9.93,5.733,18.012,19.72,18.012,31.197c0,5.681-1.945,9.93-5.477,11.97
				C298.319,229.359,296.627,229.795,294.91,229.773z M279.078,183.983c-1.518-0.021-3.014,0.362-4.336,1.109
				c-3.164,1.827-4.908,5.725-4.908,10.979c0,11.104,7.824,24.653,17.447,30.207c4.551,2.625,8.797,3.066,11.961,1.242
				c3.164-1.824,4.893-5.728,4.893-10.979c0-11.104-7.82-24.653-17.445-30.207C284.002,184.772,281.405,183.983,279.078,183.983z"/>
			<g>
				<path fill="#CCCCD9" d="M293.756,226.369c-2.141,0-4.51-0.715-6.955-2.129c-8.459-4.882-15.34-16.811-15.34-26.569
					c0-4.817,1.641-8.416,4.627-10.14s6.922-1.349,11.096,1.062c8.457,4.885,15.338,16.802,15.338,26.572
					c0,4.814-1.645,8.416-4.629,10.137C296.633,226.019,295.205,226.387,293.756,226.369z M280.229,187.229
					c-1.318-0.014-2.615,0.324-3.76,0.979c-2.738,1.579-4.246,4.947-4.246,9.478c0,9.524,6.711,21.146,14.961,25.91
					c3.92,2.265,7.59,2.641,10.328,1.062s4.246-4.947,4.246-9.463c0-9.524-6.713-21.148-14.957-25.91
					C284.471,187.913,282.233,187.229,280.229,187.229z"/>
			</g>
			<path fill="#CCCCD9" d="M289.895,215.085c-1.096-0.038-2.162-0.362-3.094-0.94c-3.693-2.132-6.693-7.333-6.693-11.595
				c0-2.147,0.742-3.758,2.094-4.539c1.35-0.781,3.121-0.618,4.982,0.456c3.689,2.132,6.691,7.33,6.691,11.591
				c0,2.15-0.746,3.761-2.098,4.542C291.205,214.927,290.555,215.094,289.895,215.085z M284.086,198.289
				c-0.525-0.008-1.043,0.125-1.502,0.384c-1.105,0.636-1.715,2.014-1.715,3.877c0,4.019,2.83,8.924,6.314,10.941
				c1.607,0.932,3.104,1.094,4.213,0.456s1.715-2.014,1.715-3.88c0-4.016-2.832-8.921-6.311-10.941
				C285.985,198.616,285.049,198.327,284.086,198.289z"/>
			<path fill="#DCDCE9" d="M298.467,210.729l-35.801-20.67c-0.973-0.562-1.84-0.645-2.498-0.361l0,0l-7.455,4.457l10.023,15.229
				l2.209,9.342c0.814,3.439,3.199,6.833,5.896,8.392l7.65,4.417l8.326,11.707l7.518-4.521v-0.015
				c0.834-0.46,1.441-1.244,1.676-2.167l6.092-18.059C302.838,216.082,301.01,212.199,298.467,210.729z"/>
			<path fill="#E1E1ED" d="M286.668,244.005l-8.555-12.032l-7.543-4.353c-2.84-1.638-5.322-5.157-6.166-8.756l-2.186-9.247
				l-10.311-15.643l8.238-4.923l0.064,0.033c0.805-0.246,1.775-0.077,2.744,0.485l35.801,20.673c2.775,1.6,4.709,5.763,3.914,8.41
				l-6.104,18.071c-0.268,1.002-0.91,1.864-1.795,2.404l-0.131,0.086L286.668,244.005z M253.518,194.327l9.787,14.913l2.209,9.341
				c0.77,3.252,3.082,6.562,5.619,8.028l7.83,4.581l8.021,11.287l7.098-4.294c0.697-0.385,1.201-1.045,1.389-1.818l6.098-18.08
				c0.637-2.105-1.105-5.751-3.391-7.07l-35.801-20.67c-0.756-0.435-1.453-0.556-1.971-0.337L253.518,194.327z"/>
			<path fill="#DCDCE9" d="M282.395,242.846l-19.244-11.113c-2.697-1.558-5.082-4.953-5.896-8.392l-5.914-25.041
				c-0.773-3.282,1.057-5.11,3.629-3.625l35.801,20.669c2.547,1.479,4.373,5.353,3.648,7.75l-6.088,18.062
				C287.547,243.739,285.133,244.425,282.395,242.846z"/>
			<path fill="#E3E3EF" d="M285.164,244.26c-1.082-0.036-2.135-0.353-3.055-0.92l-19.246-11.109
				c-2.838-1.639-5.322-5.157-6.168-8.756l-5.914-25.043c-0.459-1.937-0.092-3.569,0.982-4.368c0.91-0.68,2.188-0.639,3.488,0.118
				l35.801,20.67c2.771,1.597,4.709,5.763,3.914,8.41l-6.096,18.076c-0.391,1.301-1.182,2.227-2.277,2.662
				C286.139,244.177,285.653,244.266,285.164,244.26z M282.682,242.349c1.305,0.751,2.543,0.956,3.49,0.592
				c0.756-0.296,1.313-0.97,1.605-1.94l6.094-18.08c0.633-2.105-1.105-5.751-3.391-7.07l-35.801-20.67
				c-0.908-0.521-1.697-0.591-2.236-0.189c-0.684,0.508-0.887,1.729-0.551,3.185l5.914,25.041c0.77,3.252,3.082,6.562,5.619,8.028
				L282.682,242.349z"/>
			<path fill="#FFFFFF" d="M260.848,226.742l3.482-3.507L260.848,226.742z"/>
			<path fill="#FFFFFF" d="M281.416,238.621l3.48-3.51L281.416,238.621z"/>
			<path fill="#CECEDA" d="M262.998,221.248c-0.977-0.564-1.924-0.639-2.662-0.207c-0.74,0.432-1.154,1.287-1.154,2.41
				c0,2.105,1.426,4.575,3.254,5.619c0.486,0.298,1.041,0.464,1.611,0.482c0.371,0.003,0.736-0.092,1.059-0.275
				c0.742-0.429,1.152-1.287,1.152-2.413C266.246,224.77,264.807,222.297,262.998,221.248z M260.905,222.031
				c0.148-0.082,0.314-0.122,0.484-0.118c0.367,0.018,0.723,0.129,1.035,0.325c0.426,0.259,0.807,0.584,1.129,0.964l-2.578,2.603
				c-0.398-0.727-0.623-1.537-0.654-2.366C260.321,222.762,260.533,222.244,260.905,222.031z M264.512,228.292
				c-0.373,0.213-0.926,0.139-1.523-0.207c-0.543-0.335-1.018-0.771-1.396-1.287l2.639-2.661c0.521,0.82,0.816,1.762,0.859,2.732
				C265.102,227.561,264.889,228.079,264.512,228.292z"/>
			<path fill="#CECEDA" d="M283.567,233.123c-0.977-0.564-1.922-0.639-2.662-0.207c-0.738,0.432-1.156,1.287-1.156,2.413
				c0,2.103,1.426,4.572,3.254,5.619c0.486,0.301,1.045,0.469,1.617,0.488c0.369,0.003,0.734-0.091,1.055-0.275
				c0.744-0.429,1.154-1.287,1.154-2.413C286.813,236.645,285.389,234.173,283.567,233.123z M281.473,233.907
				c0.148-0.082,0.316-0.122,0.484-0.118c0.367,0.018,0.725,0.129,1.035,0.325c0.426,0.259,0.807,0.584,1.131,0.964l-2.58,2.602
				c-0.396-0.723-0.619-1.527-0.652-2.351C280.891,234.634,281.104,234.12,281.473,233.907z M285.086,240.167
				c-0.369,0.213-0.92,0.142-1.52-0.207c-0.543-0.335-1.018-0.771-1.396-1.286l2.639-2.662c0.521,0.82,0.816,1.762,0.859,2.732
				C285.668,239.437,285.455,239.957,285.086,240.167z"/>
			<path fill="#D4D4E1" d="M322.922,196.373c-0.916,0.464-2,0.464-2.916,0c-0.807-0.467-0.807-1.222,0-1.686
				c0.916-0.464,2-0.464,2.916,0C323.727,195.152,323.727,195.897,322.922,196.373z"/>
			<path fill="#D4D4E1" d="M290.221,177.912c-0.916,0.467-2,0.467-2.916,0c-0.805-0.464-0.805-1.218,0-1.683
				c0.916-0.464,1.998-0.464,2.916,0C291.028,176.694,291.028,177.448,290.221,177.912z"/>
			<path fill="#D3D3E1" d="M263.196,194.123c-0.916,0.467-2.002,0.467-2.918,0c-0.805-0.464-0.805-1.218,0-1.683
				c0.916-0.464,2-0.464,2.918,0C264,192.89,264,193.644,263.196,194.123z"/>
			<path fill="#D3D3E1" d="M295.543,212.601c-0.916,0.467-2,0.467-2.916,0c-0.807-0.464-0.807-1.218,0-1.682
				c0.916-0.464,2-0.464,2.916,0C296.348,211.383,296.348,212.137,295.543,212.601z"/>
			<polygon fill="#D4D4E4" points="233.127,98.018 233.19,329.556 234.656,328.592 234.656,98.018 			"/>
			<rect x="274.424" y="98.018" fill="#CFCFE1" width="1.527" height="93.567"/>
			<path fill="#CFCFE1" d="M307.873,98.018h-1.529v114.888c0.104,2.561-0.227,9.625-2.977,11.547l-3.693,2.579l-0.838,2.28
				l5.406-3.616c3.992-2.789,3.646-12.44,3.631-12.822V98.018z"/>
		</g>
	</g>
		<g>
		<polygon fill="#F9FAFE" points="44.69,517.621 30.529,509.66 16.723,517.621 16.723,532.925 30.884,525.583 		"/>
			<polygon fill="#CECEDE" points="44.69,561.302 44.69,517.621 30.884,525.583 16.723,532.925 16.723,573.836 17.815,574.451
			30.884,569.263 		"/>
			<polygon fill="#CECEDE" points="42.052,588.077 52.324,593.852 65.782,585.695 66.13,585.89 66.13,573.356 52.324,581.318 		"/>
			<polygon fill="#EDEDF6" points="30.884,569.263 17.815,574.451 42.052,588.077 52.324,581.318 66.13,573.356 44.69,561.302 		"/>
	</g>
		<polygon fill="#DCDCE9" points="30.884,569.263 30.884,525.583 16.723,517.621 16.723,573.836 52.324,593.852 52.324,581.318 	"/>
		<g>
		<polygon fill="#F9FAFE" points="178.908,451.74 178.908,466.228 193.068,458.914 207.797,450.454 193.638,443.281 		"/>
			<polygon fill="#EDEDF6" points="178.908,466.228 178.908,507.902 193.068,515.076 207.797,506.617 207.797,450.454
			193.068,458.914 		"/>
	</g>
		<polygon fill="#DCDCE9" points="178.908,451.74 178.908,507.902 193.068,515.076 193.068,458.914 	"/>
		<path fill="#FFFFFF" d="M265.168,429.068c-5.406-1.154-12.146,0.822-22.852,6.731c-6.275,3.464-7.919,4.159-12.289,7.349
		l-0.41,0.301v54.889l1.385-0.577c2.72-1.134,3.129-0.278,9.721-3.917c10.979-6.059,19.722-13.328,25.292-21.031
		c4.134-5.835,9.063-15.311,9.063-27.318C275.078,433.482,269.678,429.929,265.168,429.068z M242.296,481.171
		c-0.87,0.48,2.342-1.934,1.482-1.514V446.38c0.821-0.609-1.759,1.229,0.786-0.176c3.694-2.039,6.809-3.073,9.257-3.073
		c1.578,0,6.379,0,6.379,9.87C260.199,464.878,253.851,474.878,242.296,481.171z"/>
		<g>
		<g>
			<path fill="none" d="M237.585,488.126l-1.196-26.57L237.585,488.126c2.015,0.853,1.772,5.229,3.574,3.941
				c2.466-1.762,28.645-28.424,26.18-36.869c-2.465-8.446-2.114-17.251-9.157-17.016c-7.043,0.234-14.168,1.408-14.891,1.761
				l-8.362,3.37l2.241,19.1c-0.252-0.691-0.926-2.41-1.771-4.541l0.96,29.699C236.359,487.572,236.843,487.813,237.585,488.126z"/>
			<path fill="#060500" d="M235.361,456.699c-0.927-2.545-5.743-13.25-5.743-13.25s3.514,8.707,5.781,14.424L235.361,456.699z"/>
			<path fill="#F9FAFE" d="M269.189,430.667c0-0.001-0.001-0.006-0.001-0.006l-0.107-0.062c-0.261-0.166-0.523-0.318-0.789-0.455
				l-12.776-7.367c-1.376-0.953-2.853-1.479-4.245-1.744c-5.406-1.156-12.146,0.822-22.852,6.73
				c-6.275,3.463-7.919,4.158-12.289,7.35l-0.41,0.299l13.898,8.037c0,0,4.816,10.705,5.743,13.25l0.038,1.174
				c0.845,2.131,1.519,3.85,1.771,4.541l-2.241-19.1l8.362-3.37c0.723-0.353,7.848-1.526,14.891-1.761
				c7.043-0.235,6.692,8.569,9.157,17.016c2.465,8.445-23.714,35.107-26.18,36.869c-1.802,1.287-1.559-3.089-3.574-3.941l-3.3,6.461
				c2.037-1.013,4.317,0.146,7.003-1.337c10.979-6.059,19.158-12.735,24.728-20.438c4.134-5.835,9.063-15.311,9.063-27.318
				C275.078,436.99,272.369,432.738,269.189,430.667z"/>
			<path fill="#DCDCE9" d="M236.359,487.572l-0.96-29.699c-2.268-5.717-5.781-14.424-5.781-14.424l-13.898-8.037V490.3l13.898,8.037
				l1.385-0.577c1.611-0.671,3.91-1.699,6.873-3.173l-0.291-6.461C236.843,487.813,236.359,487.572,236.359,487.572z"/>
		</g>
			<path fill="#CFCFE1" d="M241.158,492.068c2.466-1.762,28.645-28.424,26.18-36.869c-2.465-8.446-2.114-17.251-9.157-17.016
			c-7.043,0.234-14.168,1.408-14.891,1.761l-8.362,3.37l0.433,13.385c0.099,0.271,0.154,0.451,0.154,0.516
			c0,0.656,2.699,8.15,2.699,8.15s-2.699-7.494-2.699-8.15c0-0.064-0.056-0.244-0.154-0.516l0.998,30.873
			C236.359,487.572,238.693,493.829,241.158,492.068z M243.778,446.38c0.821-0.609-1.759,1.229,0.786-0.176
			c0.592-0.328,0.273-0.171,0.835-0.446c0.478,5.956,0,13.343-1.621,15.329V446.38z"/>
	</g>
		<path fill="#E6E6F2" d="M265.168,429.068c-5.406-1.154-12.146,0.822-22.852,6.731c-6.275,3.464-7.919,4.159-12.289,7.349
		l-0.41,0.301v54.889l11.372-4.922c10.979-6.059,19.456-12.9,25.026-20.604c4.134-5.835,9.063-15.311,9.063-27.318
		C275.078,433.482,269.678,429.929,265.168,429.068z M242.296,481.171c-0.87,0.48,2.342-1.934,1.482-1.514v-33.042
		c0.179-0.085,0.427-0.213,0.786-0.411c3.694-2.039,6.809-3.073,9.257-3.073c1.578,0,6.379,0,6.379,9.87
		C260.199,464.878,253.851,474.878,242.296,481.171z"/>
</g>
</svg>
