<svg xmlns="http://www.w3.org/2000/svg" xmlns:xlink="http://www.w3.org/1999/xlink" x="0px" y="0px"
	 viewBox="0 0 566.93 566.93" style="enable-background:new 0 0 566.93 566.93;" xml:space="preserve">
<style type="text/css">
	.st0{fill:url(#SVGID_1_);}
	.st1{fill:url(#SVGID_2_);}
	.st2{fill:url(#SVGID_3_);}
	.st3{fill:url(#SVGID_4_);}
	.st4{fill:url(#SVGID_5_);}
	.st5{fill:url(#SVGID_6_);}
	.st6{fill:url(#SVGID_7_);}
	.st7{fill:url(#SVGID_8_);}
	.st8{fill:url(#SVGID_9_);}
	.st9{fill:#195EFF;}
	.st10{fill:url(#SVGID_10_);}
	.st11{fill:url(#SVGID_11_);}
</style>
<linearGradient id="SVGID_1_" gradientUnits="userSpaceOnUse" x1="229.1309" y1="161.2992" x2="330.4642" y2="254.6325">
	<stop  offset="0" style="stop-color:#1AC7FC"/>
	<stop  offset="0.6397" style="stop-color:#195EFF"/>
</linearGradient>
<path class="st0" d="M404.34,289.03c-3.6,2.06-7.21,4.11-10.8,6.18c-9.51,5.49-19.01,11-28.51,16.5
	c-7.84,4.54-15.67,9.11-23.52,13.65c-8.02,4.64-16.04,9.25-24.06,13.89c-1.69,0.98-3.37,1.99-5.05,2.98
	c-0.43,0.25-0.89,0.46-1.51,0.78c-0.04-0.62-0.09-1.04-0.1-1.46c-0.01-5.08-0.04-10.16,0.01-15.24c0-0.42,0.41-1.01,0.79-1.24
	c14.69-8.51,29.41-16.99,44.12-25.48c10.76-6.21,21.52-12.43,32.3-18.6c1.06-0.61,1.48-1.26,1.48-2.5
	c-0.04-25.12-0.04-50.23-0.05-75.35c0-6.96,0-13.92,0.03-20.88c0-0.76-0.18-1.19-0.89-1.59c-7.58-4.28-15.13-8.61-22.69-12.93
	c-6.13-3.51-12.25-7.06-18.39-10.57c-9.47-5.41-18.95-10.79-28.43-16.18c-4.41-2.51-8.83-5-13.22-7.54
	c-0.72-0.42-1.24-0.4-1.95,0.02c-8.95,5.36-17.91,10.69-26.88,16.01c-5.43,3.22-10.87,6.41-16.3,9.63
	c-2.16,1.28-4.32,2.58-6.44,3.93c-0.34,0.22-0.66,0.77-0.66,1.17c-0.06,5-0.06,10-0.07,15c-0.03,23.72-0.06,47.44-0.09,71.15
	c0,3.44,0.07,6.88,0.05,10.32c-0.01,0.93,0.39,1.4,1.17,1.83c16.01,8.89,32,17.84,48.04,26.67c1.68,0.92,2.3,1.86,2.29,3.81
	c-0.09,17.64-0.05,35.27-0.05,52.91c-0.08,0-0.16,0-0.24,0c-0.3-0.23-0.59-0.5-0.92-0.69c-2.38-1.39-4.77-2.76-7.16-4.13
	c-11.38-6.56-22.76-13.12-34.14-19.67c-9.52-5.47-19.04-10.93-28.56-16.4c-6.54-3.76-13.1-7.49-19.62-11.28
	c-3.17-1.84-6.29-3.78-9.44-5.67c0-38.24,0-76.48,0-114.72c11.17-6.43,22.34-12.85,33.51-19.29c22.01-12.69,44.03-25.37,66.03-38.08
	c0.62-0.36,1.09-0.4,1.74-0.01c3.43,2.06,6.89,4.05,10.33,6.08c12.91,7.6,25.81,15.22,38.72,22.81
	c13.7,8.06,27.41,16.12,41.12,24.16c2.65,1.55,5.33,3.05,7.99,4.57C404.34,212.07,404.34,250.55,404.34,289.03z"/>
<linearGradient id="SVGID_2_" gradientUnits="userSpaceOnUse" x1="237.1931" y1="152.5459" x2="338.5264" y2="245.8793">
	<stop  offset="0" style="stop-color:#1AC7FC"/>
	<stop  offset="0.6397" style="stop-color:#195EFF"/>
</linearGradient>
<path class="st1" d="M328.37,266.75c-1.74,1.12-3.3,2.13-4.87,3.13c-2.73,1.73-5.48,3.44-8.2,5.2c-0.62,0.4-1.1,0.42-1.74,0.05
	c-7.23-4.16-14.47-8.32-21.72-12.45c-6.52-3.72-13.06-7.41-19.6-11.1c-1.01-0.57-1.64-1.18-1.64-2.5c-0.02-24.6-0.07-49.2-0.17-73.8
	c-0.01-1.48,0.44-2.28,1.72-3.02c10.71-6.1,21.38-12.27,32.09-18.38c0.41-0.23,1.19-0.24,1.59-0.01c6.66,3.8,13.29,7.65,19.92,11.49
	c4.11,2.38,8.24,4.72,12.33,7.12c2.5,1.47,4.93,3.06,7.42,4.53c2.32,1.37,4.69,2.64,7.03,3.97c0.96,0.55,1.89,1.16,2.86,1.7
	c2.77,1.54,5.57,3.04,8.34,4.6c2.53,1.43,5.03,2.92,7.54,4.37c0.77,0.44,0.9,1.13,0.9,1.94c-0.02,3.6-0.01,7.2-0.01,10.8
	c0,21.28-0.01,42.56,0.02,63.84c0,0.88-0.27,1.37-1.02,1.81c-8.82,5.09-17.64,10.19-26.44,15.31c-8.15,4.74-16.29,9.49-24.43,14.23
	c-2.93,1.71-5.88,3.4-8.82,5.09c-0.13,0.07-0.29,0.1-0.59,0.19c-0.04-0.45-0.1-0.82-0.1-1.2c-0.01-4.84,0.01-9.68-0.02-14.52
	c0-0.7,0.24-1.05,0.83-1.4c14.6-8.5,29.18-17.03,43.78-25.53c0.71-0.41,0.99-0.84,0.99-1.68c-0.02-19.36-0.02-38.72-0.01-58.08
	c0-1.09-0.31-1.79-1.34-2.39c-9.84-5.7-19.64-11.48-29.46-17.23c-6.13-3.59-12.27-7.15-18.38-10.77c-0.74-0.44-1.26-0.37-1.95,0.03
	c-6.11,3.53-12.24,7.05-18.38,10.53c-0.7,0.4-0.91,0.86-0.91,1.63c0.02,18.08,0.01,36.16,0.01,54.24c0,0.28,0.07,0.57,0.01,0.84
	c-0.5,2.34,0.9,3.33,2.72,4.33c4.26,2.34,8.4,4.9,12.61,7.34c2.83,1.64,5.69,3.22,8.52,4.85c3.17,1.82,6.33,3.68,9.5,5.51
	c2.55,1.47,5.11,2.91,7.66,4.38C327.39,266,327.78,266.33,328.37,266.75z"/>
<g>
	<linearGradient id="SVGID_3_" gradientUnits="userSpaceOnUse" x1="180.442" y1="223.7738" x2="181.442" y2="278.7738">
		<stop  offset="0" style="stop-color:#1AC7FC"/>
		<stop  offset="0.6397" style="stop-color:#195EFF"/>
	</linearGradient>
	<path class="st2" d="M179.64,365.93v1.56c-1.15,0.29-1.91,0.65-2.29,1.08c-0.38,0.43-0.57,1.17-0.57,2.21v30.95h26.47
		c1.08,0,1.81-0.18,2.21-0.54c0.4-0.36,0.74-1.1,1.02-2.21H208v17.31h-1.51c-0.29-1.15-0.63-1.9-1.02-2.24
		c-0.4-0.34-1.13-0.51-2.21-0.51h-43.73v-1.56c1.19-0.29,1.97-0.64,2.35-1.05c0.38-0.41,0.57-1.12,0.57-2.13v-38.01
		c0-1.04-0.2-1.78-0.59-2.21c-0.4-0.43-1.17-0.79-2.32-1.08v-1.56H179.64z"/>
	<linearGradient id="SVGID_4_" gradientUnits="userSpaceOnUse" x1="249.3443" y1="222.521" x2="250.3443" y2="277.521">
		<stop  offset="0" style="stop-color:#1AC7FC"/>
		<stop  offset="0.6397" style="stop-color:#195EFF"/>
	</linearGradient>
	<path class="st3" d="M241.16,391.11c0,4.13,0.84,7.08,2.51,8.84c1.67,1.76,4.39,2.64,8.17,2.64c3.95,0,6.78-0.84,8.49-2.53
		c1.71-1.69,2.56-4.6,2.56-8.73v-20.54c0-1.04-0.19-1.78-0.57-2.21c-0.38-0.43-1.14-0.79-2.29-1.08v-1.56h20v1.51
		c-1.11,0.29-1.86,0.64-2.24,1.05c-0.38,0.41-0.57,1.18-0.57,2.29v23.35c0,6.72-2.13,11.8-6.39,15.23
		c-4.26,3.43-10.59,5.15-19.01,5.15c-8.45,0-14.73-1.72-18.84-5.15c-4.12-3.43-6.17-8.71-6.17-15.83v-22.75
		c0-1.04-0.2-1.78-0.59-2.21c-0.4-0.43-1.17-0.79-2.32-1.08v-1.56h20v1.51c-1.08,0.29-1.81,0.65-2.18,1.08
		c-0.38,0.43-0.57,1.19-0.57,2.26V391.11z"/>
	<linearGradient id="SVGID_5_" gradientUnits="userSpaceOnUse" x1="317.4641" y1="221.2825" x2="318.4641" y2="276.2825">
		<stop  offset="0" style="stop-color:#1AC7FC"/>
		<stop  offset="0.6397" style="stop-color:#195EFF"/>
	</linearGradient>
	<path class="st4" d="M339.56,383.51l-1.35-0.43c0.07-0.14,0.13-0.29,0.16-0.43c0.04-0.14,0.05-0.27,0.05-0.38
		c0-1.37-1.46-2.61-4.37-3.72c-2.91-1.11-6.24-1.67-9.97-1.67c-5.18,0-9.33,1.16-12.45,3.48c-3.13,2.32-4.69,5.4-4.69,9.25
		c0,3.81,1.5,6.82,4.5,9.03s7.14,3.32,12.43,3.32c2.48,0,4.75-0.26,6.82-0.78c2.07-0.52,4.29-1.41,6.66-2.67
		c0.5-0.29,0.86-0.56,1.08-0.81c0.22-0.25,0.32-0.52,0.32-0.81c0-0.25-0.03-0.49-0.08-0.7c-0.05-0.22-0.14-0.47-0.24-0.75l1.35-0.54
		l9.38,14.88l-1.13,0.7c-0.58-0.5-0.99-0.84-1.24-1c-0.25-0.16-0.5-0.24-0.75-0.24c-0.18,0-0.79,0.25-1.83,0.75
		c-6.43,3.09-13.25,4.64-20.43,4.64c-9.67,0-17.33-2.26-23-6.79c-5.66-4.53-8.49-10.57-8.49-18.12c0-7.33,2.78-13.31,8.33-17.93
		c5.55-4.62,12.86-6.93,21.92-6.93c4.78,0,11.92,1.4,21.41,4.21c0.4,0,0.75-0.1,1.08-0.3c0.32-0.2,0.74-0.58,1.24-1.16l1.24,0.43
		L339.56,383.51z"/>
	<linearGradient id="SVGID_6_" gradientUnits="userSpaceOnUse" x1="366.1044" y1="220.3981" x2="367.1044" y2="275.3981">
		<stop  offset="0" style="stop-color:#1AC7FC"/>
		<stop  offset="0.6397" style="stop-color:#195EFF"/>
	</linearGradient>
	<path class="st5" d="M376.33,408.79c0,1.01,0.18,1.72,0.54,2.13c0.36,0.41,1.13,0.76,2.32,1.05v1.56h-20v-1.56
		c1.15-0.25,1.91-0.57,2.26-0.97c0.36-0.39,0.54-1.13,0.54-2.21v-38.01c0-1.08-0.18-1.82-0.54-2.24c-0.36-0.41-1.11-0.78-2.26-1.11
		v-1.51h20v1.56c-1.15,0.29-1.91,0.65-2.29,1.08c-0.38,0.43-0.57,1.17-0.57,2.21V408.79z"/>
	<linearGradient id="SVGID_7_" gradientUnits="userSpaceOnUse" x1="418.7405" y1="219.4411" x2="419.7405" y2="274.4411">
		<stop  offset="0" style="stop-color:#1AC7FC"/>
		<stop  offset="0.6397" style="stop-color:#195EFF"/>
	</linearGradient>
	<path class="st6" d="M394.39,413.54v-1.56c1.15-0.25,1.91-0.57,2.26-0.97c0.36-0.39,0.54-1.13,0.54-2.21v-38.01
		c0-1.08-0.18-1.82-0.54-2.24c-0.36-0.41-1.11-0.78-2.26-1.11v-1.51H420c10.14,0,17.62,1.94,22.46,5.82
		c4.83,3.88,7.25,9.87,7.25,17.95c0,8.09-2.42,14.08-7.25,17.98c-4.84,3.9-12.32,5.85-22.46,5.85H394.39z M419.25,377.85h-7.82
		v23.89h7.82c5.43,0,9.42-0.98,11.97-2.94c2.55-1.96,3.83-4.99,3.83-9.09s-1.26-7.1-3.77-9
		C428.75,378.8,424.75,377.85,419.25,377.85z"/>
</g>
</svg>
