<svg id="图层_1" data-name="图层 1" xmlns="http://www.w3.org/2000/svg" viewBox="0 0 566.93 566.93"><path d="M411.43,351c-3.6,2.06-7.21,4.11-10.81,6.18l-28.51,16.51c-7.84,4.54-15.67,9.11-23.52,13.64q-12,7-24.06,13.89c-1.69,1-3.37,2-5.06,3-.43.25-.88.46-1.5.78,0-.62-.1-1-.1-1.46,0-5.08,0-10.16,0-15.24a1.78,1.78,0,0,1,.79-1.23q22.05-12.78,44.12-25.48,16.14-9.31,32.3-18.6a2.53,2.53,0,0,0,1.49-2.51q-.07-37.67-.05-75.35,0-10.44,0-20.88a1.53,1.53,0,0,0-.88-1.59q-11.37-6.42-22.69-12.94c-6.14-3.51-12.25-7.06-18.39-10.56Q340.4,211,326.17,203c-4.41-2.51-8.83-5-13.22-7.54a1.67,1.67,0,0,0-1.95,0q-13.42,8-26.88,16c-5.43,3.22-10.87,6.41-16.3,9.63-2.16,1.29-4.32,2.58-6.44,3.93a1.67,1.67,0,0,0-.66,1.17c-.06,5-.06,10-.07,15q0,35.58-.08,71.15c0,3.44.07,6.88,0,10.32a1.87,1.87,0,0,0,1.18,1.83c16,8.89,32,17.84,48,26.67a3.73,3.73,0,0,1,2.29,3.82c-.09,17.64-.05,35.27-.05,52.91h-.24a10,10,0,0,0-.92-.69c-2.38-1.39-4.77-2.76-7.16-4.14l-34.14-19.66q-14.28-8.22-28.56-16.4c-6.55-3.76-13.1-7.5-19.63-11.28-3.17-1.84-6.29-3.78-9.43-5.67V235.34l33.51-19.29q33-19,66-38.08a1.47,1.47,0,0,1,1.73,0c3.43,2.06,6.89,4,10.33,6.08l38.73,22.81q20.55,12.09,41.12,24.16c2.64,1.56,5.32,3.05,8,4.57Z"/><path d="M335.46,328.75c-1.74,1.11-3.3,2.12-4.88,3.12-2.73,1.74-5.48,3.44-8.19,5.2a1.46,1.46,0,0,1-1.75.06q-10.84-6.25-21.72-12.45-9.78-5.58-19.6-11.1a2.6,2.6,0,0,1-1.64-2.49q0-36.9-.16-73.8a3,3,0,0,1,1.72-3c10.72-6.09,21.38-12.27,32.09-18.38a1.85,1.85,0,0,1,1.59,0c6.66,3.79,13.29,7.65,19.93,11.48,4.11,2.38,8.23,4.72,12.33,7.12,2.5,1.47,4.92,3.06,7.42,4.54,2.32,1.36,4.69,2.64,7,4,1,.55,1.9,1.16,2.87,1.7,2.77,1.54,5.57,3,8.33,4.6,2.53,1.42,5,2.91,7.55,4.36a1.93,1.93,0,0,1,.89,1.94c0,3.6,0,7.2,0,10.8q0,31.92,0,63.84a1.81,1.81,0,0,1-1,1.81q-13.23,7.62-26.44,15.31-12.22,7.09-24.44,14.23c-2.93,1.71-5.87,3.4-8.81,5.1a3.94,3.94,0,0,1-.6.19c0-.45-.1-.82-.1-1.2,0-4.84,0-9.68,0-14.52a1.42,1.42,0,0,1,.83-1.4q21.88-12.75,43.77-25.53a1.67,1.67,0,0,0,1-1.67q0-29,0-58.08a2.41,2.41,0,0,0-1.34-2.39c-9.84-5.7-19.64-11.48-29.46-17.23-6.13-3.59-12.27-7.15-18.38-10.77a1.68,1.68,0,0,0-2,0q-9.17,5.29-18.37,10.53a1.63,1.63,0,0,0-.92,1.63q0,27.12,0,54.24a3.94,3.94,0,0,1,0,.84c-.5,2.34.9,3.33,2.72,4.32,4.26,2.35,8.4,4.9,12.61,7.35,2.83,1.64,5.69,3.22,8.52,4.84,3.18,1.83,6.33,3.68,9.51,5.51,2.54,1.47,5.11,2.91,7.65,4.38A15.8,15.8,0,0,1,335.46,328.75Z"/></svg>