<svg id="图层_1" data-name="图层 1" xmlns="http://www.w3.org/2000/svg" viewBox="0 0 566.93 566.93"><path d="M179.72,310.72v1.56a4.66,4.66,0,0,0-2.3,1.08,3.42,3.42,0,0,0-.56,2.21v30.95h26.47a3.34,3.34,0,0,0,2.21-.54,4.61,4.61,0,0,0,1-2.21h1.51v17.31h-1.51a4.51,4.51,0,0,0-1-2.24,3.49,3.49,0,0,0-2.21-.51H159.61v-1.56a4.91,4.91,0,0,0,2.34-1,3.16,3.16,0,0,0,.57-2.13v-38a3.23,3.23,0,0,0-.6-2.21,4.76,4.76,0,0,0-2.31-1.08v-1.56Z"/><path d="M241.24,335.9q0,6.19,2.5,8.84t8.17,2.64q5.94,0,8.5-2.53c1.7-1.69,2.56-4.6,2.56-8.73V315.57a3.35,3.35,0,0,0-.57-2.21,4.62,4.62,0,0,0-2.29-1.08v-1.56h20v1.51a4.79,4.79,0,0,0-2.24,1,3.52,3.52,0,0,0-.56,2.29v23.35q0,10.08-6.39,15.23t-19,5.15q-12.66,0-18.84-5.15t-6.18-15.82V315.57a3.23,3.23,0,0,0-.59-2.21,4.8,4.8,0,0,0-2.32-1.08v-1.56h20v1.51a4.52,4.52,0,0,0-2.19,1.08,3.5,3.5,0,0,0-.56,2.26Z"/><path d="M339.64,328.3l-1.35-.43a2.6,2.6,0,0,0,.16-.44,1.3,1.3,0,0,0,.05-.37q0-2.06-4.36-3.72a27.66,27.66,0,0,0-10-1.67c-5.17,0-9.33,1.16-12.45,3.47a11,11,0,0,0-4.69,9.25,10.62,10.62,0,0,0,4.5,9q4.5,3.31,12.43,3.32a28,28,0,0,0,6.82-.78,30.22,30.22,0,0,0,6.66-2.67,4.14,4.14,0,0,0,1.07-.81,1.2,1.2,0,0,0,.33-.81,3.06,3.06,0,0,0-.08-.7c-.06-.22-.14-.47-.25-.76l1.35-.54,9.38,14.89-1.13.7a11.26,11.26,0,0,0-1.24-1,1.38,1.38,0,0,0-.75-.24,8.43,8.43,0,0,0-1.84.75,46.58,46.58,0,0,1-20.43,4.64q-14.5,0-23-6.8t-8.49-18.11a22.26,22.26,0,0,1,8.33-17.93q8.32-6.93,21.92-6.93,7.17,0,21.4,4.21a2,2,0,0,0,1.08-.3,5.82,5.82,0,0,0,1.24-1.16l1.24.43Z"/><path d="M376.41,353.59a3.29,3.29,0,0,0,.54,2.13,4.67,4.67,0,0,0,2.32,1v1.56h-20v-1.56a4.52,4.52,0,0,0,2.27-1,3.38,3.38,0,0,0,.54-2.21v-38a3.44,3.44,0,0,0-.54-2.23,4.77,4.77,0,0,0-2.27-1.11v-1.51h20v1.56a4.66,4.66,0,0,0-2.3,1.08,3.42,3.42,0,0,0-.56,2.21Z"/><path d="M394.47,358.33v-1.56a4.52,4.52,0,0,0,2.27-1,3.44,3.44,0,0,0,.54-2.21v-38a3.5,3.5,0,0,0-.54-2.23,4.77,4.77,0,0,0-2.27-1.11v-1.51h25.61q15.21,0,22.46,5.82t7.25,18q0,12.13-7.25,18t-22.46,5.85Zm24.86-35.69h-7.82v23.88h7.82q8.13,0,12-2.94t3.83-9.08q0-6.15-3.78-9T419.33,322.64Z"/></svg>