<svg id="图层_1" data-name="图层 1" xmlns="http://www.w3.org/2000/svg" viewBox="0 0 566.93 566.93"><path d="M404.34,289c-3.6,2.06-7.21,4.1-10.81,6.18q-14.26,8.24-28.51,16.5-11.76,6.82-23.52,13.65l-24.06,13.89c-1.7,1-3.37,2-5.06,3-.43.25-.88.46-1.5.78-.05-.62-.1-1-.1-1.46,0-5.08,0-10.16,0-15.24a1.8,1.8,0,0,1,.79-1.24q22-12.76,44.12-25.47Q371.84,290.28,388,281a2.48,2.48,0,0,0,1.48-2.5q-.06-37.68,0-75.35,0-10.44,0-20.88a1.51,1.51,0,0,0-.89-1.59q-11.35-6.43-22.68-12.94c-6.14-3.51-12.25-7.06-18.39-10.57q-14.2-8.1-28.43-16.18c-4.41-2.51-8.83-5-13.22-7.54a1.67,1.67,0,0,0-1.95,0q-13.43,8-26.88,16c-5.43,3.22-10.87,6.41-16.3,9.63-2.16,1.28-4.32,2.58-6.44,3.93a1.64,1.64,0,0,0-.66,1.17c-.06,5-.06,10-.07,15q0,35.56-.08,71.15c0,3.44.06,6.88,0,10.31a1.88,1.88,0,0,0,1.18,1.84c16,8.88,32,17.83,48,26.67A3.71,3.71,0,0,1,305,293c-.09,17.64,0,35.28,0,52.92h-.24a8.59,8.59,0,0,0-.92-.7l-7.16-4.13-34.14-19.67L234,305c-6.55-3.75-13.1-7.49-19.63-11.28-3.17-1.84-6.29-3.77-9.43-5.66V173.35l33.51-19.29,66-38.08a1.47,1.47,0,0,1,1.73,0c3.43,2,6.89,4,10.33,6.07l38.72,22.82L396.35,169c2.64,1.55,5.32,3,8,4.57Z"/><path d="M328.37,266.75l-4.88,3.13c-2.73,1.73-5.48,3.44-8.2,5.2a1.46,1.46,0,0,1-1.74.05q-10.85-6.24-21.72-12.44-9.78-5.58-19.6-11.1a2.61,2.61,0,0,1-1.64-2.5q0-36.9-.16-73.8a3,3,0,0,1,1.72-3c10.71-6.1,21.38-12.28,32.09-18.39a1.92,1.92,0,0,1,1.59,0c6.66,3.8,13.29,7.65,19.92,11.49,4.11,2.37,8.24,4.72,12.34,7.12,2.5,1.47,4.92,3.06,7.42,4.53,2.32,1.37,4.69,2.65,7,4,1,.54,1.9,1.15,2.86,1.69,2.78,1.54,5.58,3,8.34,4.6,2.53,1.43,5,2.92,7.54,4.37a1.91,1.91,0,0,1,.9,1.94c0,3.6,0,7.2,0,10.8q0,31.92,0,63.84a1.8,1.8,0,0,1-1,1.8q-13.25,7.63-26.45,15.31-12.23,7.11-24.43,14.24-4.4,2.57-8.82,5.09a3.49,3.49,0,0,1-.59.2c0-.45-.1-.83-.1-1.2,0-4.84,0-9.68,0-14.52a1.39,1.39,0,0,1,.83-1.4q21.89-12.75,43.77-25.53a1.69,1.69,0,0,0,1-1.68q0-29,0-58.08a2.39,2.39,0,0,0-1.34-2.38c-9.84-5.71-19.64-11.48-29.46-17.23-6.13-3.59-12.27-7.16-18.38-10.77a1.68,1.68,0,0,0-2,0q-9.16,5.3-18.38,10.53a1.62,1.62,0,0,0-.91,1.63q0,27.12,0,54.23a4.74,4.74,0,0,1,0,.84c-.51,2.34.9,3.33,2.72,4.33,4.26,2.34,8.4,4.9,12.61,7.34,2.83,1.64,5.69,3.22,8.52,4.85,3.18,1.82,6.33,3.68,9.51,5.51,2.54,1.46,5.1,2.9,7.65,4.37C327.39,266,327.78,266.33,328.37,266.75Z"/><path d="M179.64,365.93v1.56a4.62,4.62,0,0,0-2.3,1.08,3.42,3.42,0,0,0-.56,2.21v31h26.47a3.34,3.34,0,0,0,2.21-.54,4.61,4.61,0,0,0,1-2.21H208v17.31h-1.51a4.51,4.51,0,0,0-1-2.24,3.49,3.49,0,0,0-2.21-.51H159.52V412a4.8,4.8,0,0,0,2.35-1.06,3.12,3.12,0,0,0,.57-2.13v-38a3.23,3.23,0,0,0-.6-2.21,4.8,4.8,0,0,0-2.32-1.08v-1.56Z"/><path d="M241.16,391.11q0,6.19,2.5,8.84c1.67,1.76,4.4,2.64,8.17,2.64q5.94,0,8.49-2.53t2.56-8.73V370.78a3.36,3.36,0,0,0-.56-2.21,4.62,4.62,0,0,0-2.29-1.08v-1.56h20v1.51a4.79,4.79,0,0,0-2.24,1.05,3.45,3.45,0,0,0-.56,2.29v23.35q0,10.08-6.39,15.23t-19,5.15q-12.68,0-18.84-5.15t-6.18-15.82V370.78a3.23,3.23,0,0,0-.59-2.21,4.85,4.85,0,0,0-2.32-1.08v-1.56h20v1.51a4.52,4.52,0,0,0-2.19,1.08,3.44,3.44,0,0,0-.56,2.26Z"/><path d="M339.56,383.51l-1.35-.43a2.6,2.6,0,0,0,.16-.44,1.9,1.9,0,0,0,.05-.37q0-2.06-4.36-3.72a27.7,27.7,0,0,0-10-1.67q-7.77,0-12.45,3.47a11,11,0,0,0-4.69,9.25,10.62,10.62,0,0,0,4.5,9q4.5,3.31,12.43,3.32a28,28,0,0,0,6.82-.78,30,30,0,0,0,6.65-2.67,4,4,0,0,0,1.08-.81,1.2,1.2,0,0,0,.33-.81,3.06,3.06,0,0,0-.08-.7c-.06-.22-.14-.47-.25-.76l1.35-.54,9.38,14.89-1.13.7a11.26,11.26,0,0,0-1.24-1,1.38,1.38,0,0,0-.75-.24,8.23,8.23,0,0,0-1.84.75,46.58,46.58,0,0,1-20.43,4.64q-14.5,0-23-6.8t-8.49-18.11a22.24,22.24,0,0,1,8.33-17.93q8.32-6.93,21.92-6.93,7.17,0,21.4,4.21a2,2,0,0,0,1.08-.3,6.06,6.06,0,0,0,1.24-1.16l1.24.43Z"/><path d="M376.33,408.79a3.25,3.25,0,0,0,.54,2.13,4.58,4.58,0,0,0,2.32,1.06v1.56h-20V412a4.61,4.61,0,0,0,2.27-1,3.45,3.45,0,0,0,.54-2.22v-38a3.5,3.5,0,0,0-.54-2.23,4.77,4.77,0,0,0-2.27-1.11v-1.51h20v1.56a4.62,4.62,0,0,0-2.3,1.08,3.42,3.42,0,0,0-.56,2.21Z"/><path d="M394.39,413.54V412a4.57,4.57,0,0,0,2.26-1,3.39,3.39,0,0,0,.54-2.22v-38a3.44,3.44,0,0,0-.54-2.23,4.72,4.72,0,0,0-2.26-1.11v-1.51H420q15.21,0,22.46,5.82t7.25,18q0,12.14-7.25,18T420,413.54Zm24.86-35.69h-7.82v23.88h7.82q8.13,0,12-2.94t3.82-9.08q0-6.15-3.77-9T419.25,377.85Z"/></svg>