<?xml version="1.0" encoding="utf-8"?>
<!-- Generator: Adobe Illustrator 25.0.0, SVG Export Plug-In . SVG Version: 6.00 Build 0)  -->
<svg version="1.1" id="图层_1" xmlns="http://www.w3.org/2000/svg" xmlns:xlink="http://www.w3.org/1999/xlink" x="0px" y="0px"
	 viewBox="0 0 566.93 566.93" style="enable-background:new 0 0 566.93 566.93;" xml:space="preserve">
<style type="text/css">
	.st0{fill:#FFFFFF;}
</style>
<g>
	<g>
		<path class="st0" d="M179.72,310.72v1.56c-1.15,0.29-1.91,0.65-2.29,1.08c-0.38,0.43-0.57,1.17-0.57,2.21v30.95h26.47
			c1.08,0,1.81-0.18,2.21-0.54c0.4-0.36,0.74-1.1,1.02-2.21h1.51v17.31h-1.51c-0.29-1.15-0.63-1.9-1.02-2.24
			c-0.4-0.34-1.13-0.51-2.21-0.51h-43.73v-1.56c1.19-0.29,1.97-0.64,2.35-1.05c0.38-0.41,0.57-1.12,0.57-2.13v-38.01
			c0-1.04-0.2-1.78-0.59-2.21c-0.4-0.43-1.17-0.79-2.32-1.08v-1.56H179.72z"/>
		<path class="st0" d="M241.24,335.9c0,4.13,0.84,7.08,2.51,8.84c1.67,1.76,4.39,2.64,8.17,2.64c3.95,0,6.78-0.84,8.49-2.53
			c1.71-1.69,2.56-4.6,2.56-8.73v-20.54c0-1.04-0.19-1.78-0.57-2.21c-0.38-0.43-1.14-0.79-2.29-1.08v-1.56h20v1.51
			c-1.11,0.29-1.86,0.64-2.24,1.05c-0.38,0.41-0.57,1.18-0.57,2.29v23.35c0,6.72-2.13,11.8-6.39,15.23
			c-4.26,3.43-10.59,5.15-19.01,5.15c-8.45,0-14.73-1.72-18.84-5.15c-4.12-3.43-6.17-8.71-6.17-15.83v-22.75
			c0-1.04-0.2-1.78-0.59-2.21c-0.4-0.43-1.17-0.79-2.32-1.08v-1.56h20v1.51c-1.08,0.29-1.81,0.65-2.18,1.08
			c-0.38,0.43-0.57,1.19-0.57,2.26V335.9z"/>
		<path class="st0" d="M339.64,328.3l-1.35-0.43c0.07-0.14,0.13-0.29,0.16-0.43c0.04-0.14,0.05-0.27,0.05-0.38
			c0-1.37-1.46-2.61-4.37-3.72c-2.91-1.11-6.24-1.67-9.97-1.67c-5.18,0-9.33,1.16-12.46,3.48c-3.13,2.32-4.69,5.4-4.69,9.25
			c0,3.81,1.5,6.82,4.5,9.03c3,2.21,7.14,3.32,12.43,3.32c2.48,0,4.75-0.26,6.82-0.78c2.07-0.52,4.29-1.41,6.66-2.67
			c0.5-0.29,0.86-0.56,1.08-0.81c0.22-0.25,0.32-0.52,0.32-0.81c0-0.25-0.03-0.49-0.08-0.7c-0.05-0.22-0.14-0.47-0.24-0.75
			l1.35-0.54l9.38,14.88l-1.13,0.7c-0.58-0.5-0.99-0.84-1.24-1c-0.25-0.16-0.5-0.24-0.75-0.24c-0.18,0-0.79,0.25-1.83,0.75
			c-6.43,3.09-13.25,4.64-20.43,4.64c-9.67,0-17.33-2.26-23-6.79c-5.66-4.53-8.49-10.57-8.49-18.12c0-7.33,2.78-13.31,8.33-17.93
			c5.55-4.62,12.86-6.93,21.92-6.93c4.78,0,11.92,1.4,21.41,4.21c0.4,0,0.75-0.1,1.08-0.3c0.32-0.2,0.74-0.58,1.24-1.16l1.24,0.43
			L339.64,328.3z"/>
		<path class="st0" d="M376.41,353.59c0,1.01,0.18,1.72,0.54,2.13c0.36,0.41,1.13,0.76,2.32,1.05v1.56h-20v-1.56
			c1.15-0.25,1.91-0.57,2.26-0.97c0.36-0.39,0.54-1.13,0.54-2.21v-38.01c0-1.08-0.18-1.82-0.54-2.24c-0.36-0.41-1.11-0.78-2.26-1.11
			v-1.51h20v1.56c-1.15,0.29-1.91,0.65-2.29,1.08c-0.38,0.43-0.57,1.17-0.57,2.21V353.59z"/>
		<path class="st0" d="M394.47,358.33v-1.56c1.15-0.25,1.91-0.57,2.26-0.97c0.36-0.39,0.54-1.13,0.54-2.21v-38.01
			c0-1.08-0.18-1.82-0.54-2.24c-0.36-0.41-1.11-0.78-2.26-1.11v-1.51h25.61c10.14,0,17.62,1.94,22.46,5.82
			c4.83,3.88,7.25,9.87,7.25,17.95c0,8.09-2.42,14.08-7.25,17.98c-4.84,3.9-12.32,5.85-22.46,5.85H394.47z M419.33,322.64h-7.82
			v23.89h7.82c5.43,0,9.42-0.98,11.97-2.94c2.55-1.96,3.83-4.99,3.83-9.09s-1.26-7.1-3.77-9
			C428.83,323.59,424.83,322.64,419.33,322.64z"/>
	</g>
</g>
</svg>
