<?xml version="1.0" encoding="utf-8"?>
<!-- Generator: Adobe Illustrator 25.0.0, SVG Export Plug-In . SVG Version: 6.00 Build 0)  -->
<svg version="1.1" id="图层_1" xmlns="http://www.w3.org/2000/svg" xmlns:xlink="http://www.w3.org/1999/xlink" x="0px" y="0px"
	 viewBox="0 0 566.93 566.93" style="enable-background:new 0 0 566.93 566.93;" xml:space="preserve">
<style type="text/css">
	.st0{fill:#FFFFFF;}
</style>
<path class="st0" d="M411.43,351.02c-3.6,2.06-7.21,4.11-10.8,6.18c-9.51,5.49-19.01,11-28.51,16.5
	c-7.84,4.54-15.67,9.11-23.52,13.65c-8.02,4.64-16.04,9.25-24.06,13.89c-1.69,0.98-3.37,1.99-5.05,2.98
	c-0.43,0.25-0.89,0.46-1.51,0.78c-0.04-0.62-0.09-1.04-0.1-1.46c-0.01-5.08-0.04-10.16,0.01-15.24c0-0.42,0.41-1.01,0.79-1.24
	c14.69-8.51,29.41-16.99,44.12-25.48c10.76-6.21,21.52-12.43,32.3-18.6c1.06-0.61,1.48-1.26,1.48-2.5
	c-0.04-25.12-0.04-50.23-0.05-75.35c0-6.96,0-13.92,0.03-20.88c0-0.76-0.18-1.19-0.89-1.59c-7.58-4.28-15.13-8.61-22.69-12.93
	c-6.13-3.51-12.25-7.06-18.39-10.57c-9.47-5.41-18.95-10.79-28.43-16.18c-4.41-2.51-8.83-5-13.22-7.54
	c-0.72-0.42-1.24-0.4-1.95,0.02c-8.95,5.36-17.91,10.69-26.88,16.01c-5.43,3.22-10.87,6.41-16.3,9.63
	c-2.16,1.28-4.32,2.58-6.44,3.93c-0.34,0.22-0.66,0.77-0.66,1.17c-0.06,5-0.06,10-0.07,15c-0.03,23.72-0.06,47.44-0.09,71.15
	c0,3.44,0.07,6.88,0.05,10.32c-0.01,0.93,0.39,1.4,1.17,1.83c16.01,8.89,32,17.84,48.04,26.67c1.68,0.92,2.3,1.86,2.29,3.81
	c-0.09,17.64-0.05,35.27-0.05,52.91c-0.08,0-0.16,0-0.24,0c-0.3-0.23-0.59-0.5-0.92-0.69c-2.38-1.39-4.77-2.76-7.16-4.13
	c-11.38-6.56-22.76-13.12-34.14-19.67c-9.52-5.47-19.04-10.93-28.56-16.4c-6.54-3.76-13.1-7.49-19.62-11.28
	c-3.17-1.84-6.29-3.78-9.44-5.67c0-38.24,0-76.48,0-114.72c11.17-6.43,22.34-12.85,33.51-19.29c22.01-12.69,44.03-25.37,66.03-38.08
	c0.62-0.36,1.09-0.4,1.74-0.01c3.43,2.06,6.89,4.05,10.33,6.08c12.91,7.6,25.81,15.22,38.72,22.81
	c13.7,8.06,27.41,16.12,41.12,24.16c2.65,1.55,5.33,3.05,7.99,4.57C411.43,274.06,411.43,312.54,411.43,351.02z"/>
<path class="st0" d="M335.46,328.75c-1.74,1.12-3.3,2.13-4.87,3.13c-2.73,1.73-5.48,3.44-8.2,5.2c-0.62,0.4-1.1,0.42-1.74,0.05
	c-7.23-4.16-14.47-8.32-21.72-12.45c-6.52-3.72-13.06-7.42-19.6-11.1c-1.01-0.57-1.64-1.18-1.64-2.5c-0.02-24.6-0.07-49.2-0.17-73.8
	c-0.01-1.48,0.44-2.28,1.72-3.02c10.71-6.1,21.38-12.27,32.09-18.38c0.41-0.23,1.19-0.24,1.59-0.01c6.66,3.8,13.29,7.65,19.92,11.49
	c4.11,2.38,8.24,4.72,12.33,7.12c2.5,1.47,4.93,3.06,7.42,4.53c2.32,1.37,4.69,2.64,7.03,3.97c0.96,0.55,1.89,1.16,2.86,1.7
	c2.77,1.54,5.57,3.04,8.34,4.6c2.53,1.43,5.03,2.92,7.54,4.37c0.77,0.44,0.9,1.13,0.9,1.94c-0.02,3.6-0.01,7.2-0.01,10.8
	c0,21.28-0.01,42.56,0.02,63.84c0,0.88-0.27,1.37-1.02,1.81c-8.82,5.09-17.64,10.19-26.44,15.31c-8.15,4.74-16.29,9.49-24.43,14.23
	c-2.93,1.71-5.88,3.4-8.82,5.09c-0.13,0.07-0.29,0.1-0.59,0.19c-0.04-0.45-0.1-0.82-0.1-1.2c-0.01-4.84,0.01-9.68-0.02-14.52
	c0-0.7,0.24-1.05,0.83-1.4c14.6-8.5,29.18-17.03,43.78-25.53c0.71-0.41,0.99-0.84,0.99-1.68c-0.02-19.36-0.02-38.72-0.01-58.08
	c0-1.09-0.31-1.79-1.34-2.39c-9.84-5.7-19.64-11.48-29.46-17.23c-6.13-3.59-12.27-7.15-18.38-10.77c-0.74-0.44-1.26-0.37-1.95,0.03
	c-6.11,3.53-12.24,7.05-18.38,10.53c-0.7,0.4-0.91,0.86-0.91,1.63c0.02,18.08,0.01,36.16,0.01,54.24c0,0.28,0.07,0.57,0.01,0.84
	c-0.5,2.34,0.9,3.33,2.72,4.33c4.26,2.34,8.4,4.9,12.61,7.34c2.83,1.64,5.69,3.22,8.52,4.85c3.17,1.82,6.33,3.68,9.5,5.51
	c2.55,1.47,5.11,2.91,7.66,4.38C334.48,327.99,334.87,328.32,335.46,328.75z"/>
</svg>
