<?xml version="1.0" encoding="utf-8"?>
<!-- Generator: Adobe Illustrator 25.0.0, SVG Export Plug-In . SVG Version: 6.00 Build 0)  -->
<svg version="1.1" id="图层_1" xmlns="http://www.w3.org/2000/svg" xmlns:xlink="http://www.w3.org/1999/xlink" x="0px" y="0px"
	 viewBox="0 0 566.93 566.93" style="enable-background:new 0 0 566.93 566.93;" xml:space="preserve">
<style type="text/css">
	.st0{fill:#FFFFFF;}
</style>
<path class="st0" d="M185.35,335.93c-1.76,1.01-3.53,2.01-5.28,3.02c-4.65,2.69-9.29,5.38-13.94,8.07
	c-3.83,2.22-7.66,4.45-11.5,6.67c-3.92,2.27-7.84,4.52-11.76,6.79c-0.83,0.48-1.65,0.97-2.47,1.46c-0.21,0.12-0.43,0.23-0.74,0.38
	c-0.02-0.3-0.05-0.51-0.05-0.72c-0.01-2.48-0.02-4.97,0.01-7.45c0-0.21,0.2-0.5,0.39-0.6c7.18-4.16,14.38-8.31,21.57-12.45
	c5.26-3.03,10.52-6.08,15.79-9.09c0.52-0.3,0.73-0.61,0.72-1.22c-0.02-12.28-0.02-24.56-0.02-36.84c0-3.4,0-6.8,0.02-10.21
	c0-0.37-0.09-0.58-0.43-0.78c-3.7-2.09-7.4-4.21-11.09-6.32c-3-1.72-5.99-3.45-8.99-5.17c-4.63-2.64-9.26-5.27-13.9-7.91
	c-2.16-1.23-4.32-2.44-6.46-3.69c-0.35-0.2-0.61-0.2-0.95,0.01c-4.37,2.62-8.76,5.22-13.14,7.83c-2.65,1.57-5.31,3.14-7.97,4.71
	c-1.06,0.63-2.11,1.26-3.15,1.92c-0.17,0.11-0.32,0.38-0.32,0.57c-0.03,2.44-0.03,4.89-0.03,7.33c-0.02,11.59-0.03,23.19-0.04,34.78
	c0,1.68,0.03,3.36,0.02,5.04c0,0.46,0.19,0.68,0.57,0.9c7.83,4.35,15.64,8.72,23.48,13.04c0.82,0.45,1.12,0.91,1.12,1.86
	c-0.04,8.62-0.03,17.24-0.02,25.87c-0.04,0-0.08,0-0.12,0c-0.15-0.11-0.29-0.25-0.45-0.34c-1.16-0.68-2.33-1.35-3.5-2.02
	c-5.56-3.2-11.13-6.41-16.69-9.61c-4.65-2.68-9.31-5.34-13.96-8.02c-3.2-1.84-6.4-3.66-9.59-5.51c-1.55-0.9-3.08-1.85-4.61-2.77
	c0-18.69,0-37.39,0-56.08c5.46-3.14,10.92-6.28,16.38-9.43c10.76-6.2,21.52-12.4,32.28-18.61c0.31-0.18,0.53-0.2,0.85-0.01
	c1.67,1,3.37,1.98,5.05,2.97c6.31,3.72,12.62,7.44,18.93,11.15c6.7,3.94,13.4,7.88,20.1,11.81c1.29,0.76,2.6,1.49,3.91,2.23
	C185.35,298.3,185.35,317.12,185.35,335.93z"/>
<path class="st0" d="M148.21,325.04c-0.85,0.55-1.62,1.04-2.38,1.53c-1.34,0.85-2.68,1.68-4.01,2.54c-0.3,0.2-0.54,0.21-0.85,0.03
	c-3.53-2.04-7.07-4.07-10.62-6.08c-3.19-1.82-6.38-3.62-9.58-5.43c-0.49-0.28-0.8-0.58-0.8-1.22c-0.01-12.03-0.03-24.05-0.08-36.08
	c0-0.72,0.21-1.12,0.84-1.47c5.24-2.98,10.45-6,15.69-8.99c0.2-0.11,0.58-0.12,0.78,0c3.26,1.86,6.49,3.74,9.74,5.61
	c2.01,1.16,4.03,2.31,6.03,3.48c1.22,0.72,2.41,1.5,3.63,2.21c1.13,0.67,2.29,1.29,3.44,1.94c0.47,0.27,0.93,0.57,1.4,0.83
	c1.36,0.75,2.72,1.49,4.07,2.25c1.24,0.7,2.46,1.43,3.69,2.13c0.38,0.22,0.44,0.55,0.44,0.95c-0.01,1.76-0.01,3.52-0.01,5.28
	c0,10.4,0,20.8,0.01,31.21c0,0.43-0.13,0.67-0.5,0.88c-4.31,2.49-8.62,4.98-12.93,7.49c-3.98,2.31-7.96,4.64-11.94,6.96
	c-1.43,0.83-2.87,1.66-4.31,2.49c-0.06,0.04-0.14,0.05-0.29,0.09c-0.02-0.22-0.05-0.4-0.05-0.59c0-2.37,0.01-4.73-0.01-7.1
	c0-0.34,0.12-0.52,0.4-0.68c7.14-4.16,14.26-8.33,21.4-12.48c0.35-0.2,0.49-0.41,0.48-0.82c-0.01-9.46-0.01-18.93,0-28.39
	c0-0.53-0.15-0.88-0.65-1.17c-4.81-2.79-9.6-5.61-14.4-8.42c-3-1.75-6-3.5-8.99-5.27c-0.36-0.21-0.62-0.18-0.95,0.02
	c-2.99,1.73-5.98,3.45-8.98,5.15c-0.34,0.19-0.45,0.42-0.45,0.79c0.01,8.84,0.01,17.68,0.01,26.51c0,0.14,0.03,0.28,0.01,0.41
	c-0.25,1.15,0.44,1.63,1.33,2.12c2.08,1.15,4.11,2.4,6.17,3.59c1.38,0.8,2.78,1.57,4.17,2.37c1.55,0.89,3.1,1.8,4.65,2.69
	c1.24,0.72,2.5,1.42,3.74,2.14C147.74,324.67,147.93,324.83,148.21,325.04z"/>
<g>
	<g>
		<path class="st0" d="M232.37,282.82v1.56c-1.15,0.29-1.91,0.65-2.29,1.08c-0.38,0.43-0.57,1.17-0.57,2.21v30.95h26.47
			c1.08,0,1.81-0.18,2.21-0.54c0.4-0.36,0.74-1.1,1.02-2.21h1.51v17.31h-1.51c-0.29-1.15-0.63-1.9-1.02-2.24
			c-0.4-0.34-1.13-0.51-2.21-0.51h-43.73v-1.56c1.19-0.29,1.97-0.64,2.35-1.05c0.38-0.41,0.57-1.12,0.57-2.13v-38.01
			c0-1.04-0.2-1.78-0.59-2.21c-0.4-0.43-1.17-0.79-2.32-1.08v-1.56H232.37z"/>
		<path class="st0" d="M293.89,308c0,4.13,0.84,7.08,2.51,8.84c1.67,1.76,4.39,2.64,8.17,2.64c3.95,0,6.78-0.84,8.49-2.53
			c1.71-1.69,2.56-4.6,2.56-8.73v-20.54c0-1.04-0.19-1.78-0.57-2.21c-0.38-0.43-1.14-0.79-2.29-1.08v-1.56h20v1.51
			c-1.11,0.29-1.86,0.64-2.24,1.05c-0.38,0.41-0.57,1.18-0.57,2.29v23.35c0,6.72-2.13,11.8-6.39,15.23
			c-4.26,3.43-10.59,5.15-19.01,5.15c-8.45,0-14.73-1.72-18.84-5.15c-4.12-3.43-6.17-8.71-6.17-15.83v-22.75
			c0-1.04-0.2-1.78-0.59-2.21c-0.4-0.43-1.17-0.79-2.32-1.08v-1.56h20v1.51c-1.08,0.29-1.81,0.65-2.18,1.08
			c-0.38,0.43-0.57,1.19-0.57,2.26V308z"/>
		<path class="st0" d="M392.29,300.4l-1.35-0.43c0.07-0.14,0.13-0.29,0.16-0.43c0.04-0.14,0.05-0.27,0.05-0.38
			c0-1.37-1.46-2.61-4.37-3.72c-2.91-1.11-6.24-1.67-9.97-1.67c-5.18,0-9.33,1.16-12.46,3.48c-3.13,2.32-4.69,5.4-4.69,9.25
			c0,3.81,1.5,6.82,4.5,9.03c3,2.21,7.14,3.32,12.43,3.32c2.48,0,4.75-0.26,6.82-0.78c2.07-0.52,4.29-1.41,6.66-2.67
			c0.5-0.29,0.86-0.56,1.08-0.81c0.22-0.25,0.32-0.52,0.32-0.81c0-0.25-0.03-0.49-0.08-0.7c-0.05-0.22-0.14-0.47-0.24-0.75
			l1.35-0.54l9.38,14.88l-1.13,0.7c-0.58-0.5-0.99-0.84-1.24-1c-0.25-0.16-0.5-0.24-0.75-0.24c-0.18,0-0.79,0.25-1.83,0.75
			c-6.43,3.09-13.25,4.64-20.43,4.64c-9.67,0-17.33-2.26-23-6.79c-5.66-4.53-8.49-10.57-8.49-18.12c0-7.33,2.78-13.31,8.33-17.93
			c5.55-4.62,12.86-6.93,21.92-6.93c4.78,0,11.92,1.4,21.41,4.21c0.4,0,0.75-0.1,1.08-0.3c0.32-0.2,0.74-0.58,1.24-1.16l1.24,0.43
			L392.29,300.4z"/>
		<path class="st0" d="M429.06,325.69c0,1.01,0.18,1.72,0.54,2.13c0.36,0.41,1.13,0.76,2.32,1.05v1.56h-20v-1.56
			c1.15-0.25,1.91-0.57,2.26-0.97c0.36-0.39,0.54-1.13,0.54-2.21v-38.01c0-1.08-0.18-1.82-0.54-2.24c-0.36-0.41-1.11-0.78-2.26-1.11
			v-1.51h20v1.56c-1.15,0.29-1.91,0.65-2.29,1.08c-0.38,0.43-0.57,1.17-0.57,2.21V325.69z"/>
		<path class="st0" d="M447.12,330.43v-1.56c1.15-0.25,1.91-0.57,2.26-0.97c0.36-0.39,0.54-1.13,0.54-2.21v-38.01
			c0-1.08-0.18-1.82-0.54-2.24c-0.36-0.41-1.11-0.78-2.26-1.11v-1.51h25.61c10.14,0,17.62,1.94,22.46,5.82
			c4.83,3.88,7.25,9.87,7.25,17.95c0,8.09-2.42,14.08-7.25,17.98c-4.84,3.9-12.32,5.85-22.46,5.85H447.12z M471.98,294.74h-7.82
			v23.89h7.82c5.43,0,9.42-0.98,11.97-2.94c2.55-1.96,3.83-4.99,3.83-9.09c0-4.1-1.26-7.1-3.77-9
			C481.49,295.69,477.48,294.74,471.98,294.74z"/>
	</g>
</g>
</svg>
