<svg id="图层_1" data-name="图层 1" xmlns="http://www.w3.org/2000/svg" viewBox="0 0 566.93 566.93"><path d="M185.35,335.93c-1.76,1-3.52,2-5.28,3q-7,4-13.94,8.07l-11.5,6.67-11.76,6.79c-.83.47-1.64,1-2.47,1.45-.21.13-.43.23-.74.39,0-.31,0-.51,0-.72,0-2.48,0-5,0-7.45a.84.84,0,0,1,.39-.6q10.77-6.24,21.56-12.46c5.27-3,10.52-6.07,15.8-9.09a1.24,1.24,0,0,0,.72-1.22q0-18.42,0-36.84,0-5.1,0-10.21a.72.72,0,0,0-.43-.77q-5.55-3.15-11.09-6.33c-3-1.72-6-3.45-9-5.16q-6.94-4-13.9-7.91c-2.15-1.23-4.31-2.45-6.46-3.69a.81.81,0,0,0-1,0q-6.57,3.93-13.14,7.83c-2.65,1.57-5.32,3.13-8,4.71q-1.59.93-3.15,1.92a.79.79,0,0,0-.32.57c0,2.44,0,4.89,0,7.33q0,17.4-.05,34.78c0,1.68,0,3.37,0,5.05a.9.9,0,0,0,.57.89c7.83,4.35,15.64,8.72,23.48,13a1.81,1.81,0,0,1,1.12,1.87c0,8.62,0,17.24,0,25.86h-.12c-.15-.11-.29-.24-.45-.34l-3.49-2L116,351.76l-14-8q-4.8-2.75-9.59-5.51c-1.55-.9-3.08-1.85-4.61-2.77V279.38L104.24,270l32.27-18.62a.74.74,0,0,1,.85,0c1.68,1,3.37,2,5,3l18.93,11.15,20.1,11.81c1.3.76,2.61,1.49,3.91,2.23Z"/><path d="M148.21,325l-2.38,1.53c-1.33.84-2.68,1.68-4,2.54a.72.72,0,0,1-.85,0q-5.29-3-10.62-6.08-4.78-2.73-9.58-5.43a1.26,1.26,0,0,1-.8-1.22q0-18-.08-36.07a1.47,1.47,0,0,1,.84-1.48c5.24-3,10.45-6,15.69-9a.93.93,0,0,1,.78,0q4.88,2.79,9.74,5.62c2,1.16,4,2.3,6,3.48,1.22.72,2.4,1.49,3.62,2.21s2.3,1.3,3.44,1.95c.47.26.93.56,1.4.83,1.36.75,2.72,1.48,4.08,2.24s2.45,1.43,3.68,2.14a1,1,0,0,1,.44.95c0,1.76,0,3.52,0,5.28q0,15.6,0,31.2a.9.9,0,0,1-.5.89q-6.48,3.72-12.93,7.48l-11.94,7L140,343.58a1.44,1.44,0,0,1-.29.09c0-.21,0-.4,0-.58,0-2.37,0-4.73,0-7.1a.67.67,0,0,1,.4-.68q10.71-6.24,21.4-12.48a.83.83,0,0,0,.49-.82q0-14.2,0-28.39a1.17,1.17,0,0,0-.65-1.17c-4.81-2.79-9.61-5.61-14.4-8.42-3-1.76-6-3.5-9-5.27a.81.81,0,0,0-.95,0q-4.49,2.58-9,5.14a.8.8,0,0,0-.44.8v26.51a1.89,1.89,0,0,1,0,.41c-.25,1.15.44,1.63,1.33,2.12,2.08,1.14,4.11,2.39,6.16,3.59,1.38.8,2.78,1.57,4.17,2.37l4.64,2.69,3.75,2.14A7.23,7.23,0,0,1,148.21,325Z"/><path d="M232.37,282.82v1.57a4.5,4.5,0,0,0-2.29,1.07,3.37,3.37,0,0,0-.57,2.21v30.95H256a3.34,3.34,0,0,0,2.21-.54,4.56,4.56,0,0,0,1-2.21h1.51v17.31h-1.51a4.51,4.51,0,0,0-1-2.24,3.49,3.49,0,0,0-2.21-.51H212.26v-1.56a4.91,4.91,0,0,0,2.34-1.05,3.16,3.16,0,0,0,.57-2.13v-38a3.25,3.25,0,0,0-.6-2.21,4.67,4.67,0,0,0-2.31-1.07v-1.57Z"/><path d="M293.89,308c0,4.14.83,7.08,2.5,8.84s4.4,2.65,8.17,2.65q5.94,0,8.5-2.54c1.7-1.69,2.56-4.6,2.56-8.73V287.67a3.37,3.37,0,0,0-.57-2.21,4.54,4.54,0,0,0-2.29-1.07v-1.57h20v1.51a4.69,4.69,0,0,0-2.23,1.05,3.46,3.46,0,0,0-.57,2.29V311q0,10.08-6.39,15.23t-19,5.15q-12.66,0-18.84-5.15t-6.17-15.82V287.67a3.25,3.25,0,0,0-.6-2.21,4.72,4.72,0,0,0-2.32-1.07v-1.57h20v1.51a4.52,4.52,0,0,0-2.19,1.08,3.52,3.52,0,0,0-.56,2.26Z"/><path d="M392.29,300.4l-1.35-.43a2.07,2.07,0,0,0,.16-.43,1.48,1.48,0,0,0,.06-.38q0-2.06-4.37-3.72a27.88,27.88,0,0,0-10-1.67q-7.76,0-12.45,3.48a10.93,10.93,0,0,0-4.69,9.24,10.62,10.62,0,0,0,4.5,9q4.5,3.32,12.43,3.32a28,28,0,0,0,6.82-.78,30.22,30.22,0,0,0,6.66-2.67,4.41,4.41,0,0,0,1.08-.81,1.24,1.24,0,0,0,.32-.81,3.13,3.13,0,0,0-.08-.7q-.09-.33-.24-.75l1.34-.54,9.39,14.88-1.14.7a12.65,12.65,0,0,0-1.24-1,1.38,1.38,0,0,0-.75-.24,8.43,8.43,0,0,0-1.84.75,46.58,46.58,0,0,1-20.43,4.64q-14.5,0-23-6.79T345,306.6a22.26,22.26,0,0,1,8.33-17.93q8.34-6.93,21.92-6.93,7.17,0,21.41,4.21a2,2,0,0,0,1.07-.3,5.56,5.56,0,0,0,1.24-1.16l1.24.43Z"/><path d="M429.06,325.69a3.29,3.29,0,0,0,.54,2.13,4.67,4.67,0,0,0,2.32,1.05v1.56h-20v-1.56a4.52,4.52,0,0,0,2.27-1,3.36,3.36,0,0,0,.54-2.21v-38a3.46,3.46,0,0,0-.54-2.23,4.86,4.86,0,0,0-2.27-1.11v-1.51h20v1.57a4.5,4.5,0,0,0-2.29,1.07,3.37,3.37,0,0,0-.57,2.21Z"/><path d="M447.12,330.43v-1.56a4.52,4.52,0,0,0,2.27-1,3.36,3.36,0,0,0,.54-2.21v-38a3.46,3.46,0,0,0-.54-2.23,4.86,4.86,0,0,0-2.27-1.11v-1.51h25.61q15.21,0,22.46,5.83t7.25,18q0,12.13-7.25,18t-22.46,5.85ZM472,294.74h-7.82v23.88H472q8.14,0,12-2.93t3.83-9.09q0-6.15-3.78-9T472,294.74Z"/></svg>